<?xml version="1.0" encoding="UTF-8"?>
<!DOCTYPE svg PUBLIC "-//W3C//DTD SVG 1.1//EN" "http://www.w3.org/Graphics/SVG/1.1/DTD/svg11.dtd">
<!-- Creator: CorelDRAW 2021 (64-Bit) -->
<svg xmlns="http://www.w3.org/2000/svg" xml:space="preserve" width="1.72493in" height="0.690358in" version="1.1" style="shape-rendering:geometricPrecision; text-rendering:geometricPrecision; image-rendering:optimizeQuality; fill-rule:evenodd; clip-rule:evenodd"
viewBox="0 0 91.48 36.61"
 xmlns:xlink="http://www.w3.org/1999/xlink"
 xmlns:xodm="http://www.corel.com/coreldraw/odm/2003">
 <defs>
  <style type="text/css">
   <![CDATA[
    .str1 {stroke:black;stroke-width:2.1;stroke-linejoin:round;stroke-miterlimit:2.61313}
    .str2 {stroke:#A45E4D;stroke-width:0.45;stroke-linejoin:round;stroke-miterlimit:2.61313}
    .str0 {stroke:black;stroke-width:2.25;stroke-linecap:round;stroke-linejoin:round;stroke-miterlimit:2.61313}
    .fil0 {fill:none}
    .fil4 {fill:none;fill-rule:nonzero}
    .fil7 {fill:#ED3237}
    .fil2 {fill:black}
    .fil3 {fill:red}
    .fil1 {fill:white}
    .fil6 {fill:#FEFEFE;fill-rule:nonzero}
    .fil8 {fill:#ED3237;fill-rule:nonzero}
    .fil5 {fill:url(#id0);fill-rule:nonzero}
   ]]>
  </style>
  <linearGradient id="id0" gradientUnits="objectBoundingBox" x1="50%" y1="6.90913e-05%" x2="50%" y2="100%">
   <stop offset="0" style="stop-opacity:1; stop-color:#FFF212"/>
   <stop offset="1" style="stop-opacity:1; stop-color:#F5874F"/>
  </linearGradient>
 </defs>
 <g id="Capa_x0020_1">
  <metadata id="CorelCorpID_0Corel-Layer"/>
  <g id="_2368288238736">
   <g>
    <path class="fil0 str0" d="M48.33 2.08c1.73,0.14 1.91,1.34 2.18,2.28 2.09,0.17 5.79,-1 6.08,2.1 1.08,0.15 2.39,0.34 3.46,0.57 0.99,0.21 1.89,1.01 1.94,2.1 0.03,0.64 -0.9,5.82 -1.08,6.91l-2.83 17.21c-0.11,0.68 -0.2,1.05 -0.54,1.48 -0.23,0.29 -0.74,0.61 -1.28,0.73 -0.91,0.21 -5.64,-0.74 -6.89,-0.95 -1.06,-0.18 -6.24,-1.08 -6.85,-1.11 -0.73,-0.03 -3.26,-0.03 -3.81,0.2 -0.97,0.42 -2.03,0.93 -3.14,0.31 -0.43,-0.24 -0.73,-0.56 -0.94,-1.07l-2.09 -5.12c-0.59,-0.66 -0.93,-1.5 -1.02,-2.5l-0.95 -2.33c-1.56,-3.78 -3.06,-7.58 -4.64,-11.39 -0.4,-0.98 -1,-1.97 -0.4,-3.07 0.53,-0.97 1.21,-1.12 2.41,-1.61 1.91,-0.78 3.77,-1.53 5.67,-2.31 1.01,-0.42 7.82,-3.33 8.64,-3.38 1.22,-0.07 2.14,0.64 2.33,1.64 0.96,-0.16 2.9,-0.77 3.75,-0.7zm-47.21 16.52c1.18,0.05 2.18,0.07 2.99,0.07 0.32,0 0.83,-0.01 1.56,-0.02 0.34,-0.01 0.65,-0.01 0.94,-0.01 1.03,0 1.78,0.15 2.23,0.46 0.6,0.4 0.91,0.98 0.91,1.75 0,0.67 -0.23,1.23 -0.68,1.68 -0.34,0.34 -0.86,0.62 -1.56,0.84 0.62,0.05 1.12,0.16 1.5,0.33 0.38,0.17 0.67,0.44 0.89,0.79 0.21,0.35 0.32,0.76 0.32,1.23 0,0.58 -0.16,1.12 -0.49,1.62 -0.33,0.5 -0.82,0.89 -1.48,1.16 -0.66,0.27 -1.5,0.41 -2.54,0.41 -0.28,0 -0.63,-0.01 -1.05,-0.02 -0.55,-0.02 -0.92,-0.04 -1.12,-0.04 -0.37,0 -1.17,0.03 -2.42,0.09l0 -0.54 1.22 -0.26c0.11,-0.03 0.19,-0.08 0.24,-0.13 0.05,-0.05 0.09,-0.13 0.12,-0.22 0.04,-0.15 0.06,-0.58 0.07,-1.28 0.01,-1.22 0.02,-2.37 0.02,-3.42 0,-0.59 -0.02,-1.51 -0.06,-2.77 -0.01,-0.38 -0.05,-0.62 -0.13,-0.75 -0.04,-0.07 -0.12,-0.12 -0.22,-0.17 -0.04,-0.02 -0.46,-0.11 -1.26,-0.27l0 -0.54zm10.41 1.37c1.08,0.04 1.92,0.06 2.52,0.06 0.61,0 1.43,-0.02 2.45,-0.06l0 0.47c-0.87,0.13 -1.34,0.22 -1.41,0.25 -0.13,0.07 -0.19,0.25 -0.19,0.55l-0.03 1.62 0 5.26 2.31 0c0.38,0 0.63,-0.03 0.76,-0.08 0.17,-0.07 0.34,-0.2 0.5,-0.38 0.16,-0.19 0.44,-0.61 0.85,-1.29l0.57 0c-0.28,0.78 -0.56,1.63 -0.83,2.56 -1.79,-0.04 -3.28,-0.06 -4.47,-0.06 -0.97,0 -1.98,0.02 -3.03,0.06l0 -0.47c0.74,-0.15 1.15,-0.25 1.23,-0.3 0.07,-0.05 0.12,-0.16 0.14,-0.31 0.02,-0.15 0.03,-1.16 0.03,-3.03l0 -2.3 0 -0.4c0,-0.68 -0.02,-1.08 -0.07,-1.21 -0.03,-0.1 -0.09,-0.17 -0.17,-0.21 -0.08,-0.04 -0.47,-0.13 -1.16,-0.26l0 -0.47zm16.75 5.35c0.68,1.51 1.09,2.36 1.23,2.57 0.09,0.14 0.18,0.25 0.27,0.3 0.09,0.06 0.38,0.15 0.86,0.28l0 0.47c-0.74,-0.04 -1.44,-0.06 -2.07,-0.06 -0.63,0 -1.42,0.02 -2.36,0.06l0 -0.47c0.51,-0.09 0.81,-0.17 0.89,-0.23 0.08,-0.06 0.12,-0.14 0.12,-0.24 0,-0.06 -0.01,-0.13 -0.04,-0.2 -0.07,-0.18 -0.29,-0.71 -0.66,-1.59 -0.59,-0.01 -1.08,-0.01 -1.48,-0.01 -0.32,0 -0.86,0 -1.61,0.01 -0.47,1.1 -0.71,1.71 -0.71,1.82 0,0.1 0.03,0.17 0.1,0.22 0.07,0.05 0.36,0.12 0.9,0.22l0 0.47c-0.53,-0.04 -1.04,-0.06 -1.52,-0.06 -0.52,0 -1.05,0.02 -1.59,0.06l0 -0.47c0.38,-0.08 0.64,-0.17 0.78,-0.27 0.1,-0.07 0.19,-0.17 0.27,-0.3 0.16,-0.27 0.66,-1.29 1.47,-3.09 0.52,-1.13 1.26,-2.81 2.22,-5.03l0.5 0c0.39,0.99 1.2,2.84 2.43,5.55zm43.45 -4.21c0.92,-0.89 2.19,-1.33 3.82,-1.33 0.52,0 1.02,0.04 1.5,0.12 0.48,0.08 1.08,0.24 1.79,0.46 -0.02,0.27 -0.03,0.56 -0.03,0.86 0,0.51 0.03,1.13 0.08,1.87l-0.7 0c-0.21,-0.81 -0.35,-1.29 -0.42,-1.43 -0.16,-0.32 -0.41,-0.58 -0.77,-0.8 -0.36,-0.22 -0.84,-0.33 -1.44,-0.33 -0.92,0 -1.64,0.28 -2.14,0.85 -0.61,0.68 -0.91,1.62 -0.91,2.82 0,1.24 0.3,2.18 0.91,2.83 0.61,0.65 1.42,0.97 2.45,0.97 0.91,0 1.81,-0.26 2.7,-0.79l0.32 0.61c-0.73,0.48 -1.4,0.82 -2.02,1.02 -0.62,0.2 -1.26,0.3 -1.94,0.3 -1.42,0 -2.54,-0.41 -3.36,-1.22 -0.82,-0.81 -1.22,-1.9 -1.22,-3.28 0,-1.46 0.46,-2.64 1.38,-3.52zm-4.58 4.21c0.68,1.51 1.09,2.36 1.23,2.57 0.09,0.14 0.18,0.25 0.27,0.3 0.09,0.06 0.38,0.15 0.86,0.28l0 0.47c-0.74,-0.04 -1.44,-0.06 -2.07,-0.06 -0.63,0 -1.42,0.02 -2.36,0.06l0 -0.47c0.51,-0.09 0.81,-0.17 0.89,-0.23 0.08,-0.06 0.12,-0.14 0.12,-0.24 0,-0.06 -0.01,-0.13 -0.04,-0.2 -0.07,-0.18 -0.29,-0.71 -0.66,-1.59 -0.59,-0.01 -1.08,-0.01 -1.48,-0.01 -0.32,0 -0.86,0 -1.61,0.01 -0.47,1.1 -0.71,1.71 -0.71,1.82 0,0.1 0.03,0.17 0.1,0.22 0.07,0.05 0.36,0.12 0.9,0.22l0 0.47c-0.53,-0.04 -1.04,-0.06 -1.52,-0.06 -0.52,0 -1.05,0.02 -1.59,0.06l0 -0.47c0.38,-0.08 0.64,-0.17 0.78,-0.27 0.1,-0.07 0.19,-0.17 0.27,-0.3 0.16,-0.27 0.66,-1.29 1.47,-3.09 0.52,-1.13 1.26,-2.81 2.22,-5.03l0.5 0c0.39,0.99 1.2,2.84 2.43,5.55zm13.06 -5.35c0.81,0.04 1.62,0.06 2.41,0.06 0.81,0 1.6,-0.02 2.38,-0.06l0 0.47 -1.05 0.21c-0.13,0.05 -0.22,0.11 -0.28,0.2 -0.05,0.08 -0.08,0.27 -0.08,0.56l-0.01 2.87c1.27,-1.24 2.18,-2.2 2.73,-2.87 0.26,-0.32 0.39,-0.53 0.39,-0.63 0,-0.07 -0.04,-0.13 -0.13,-0.16 -0.04,-0.02 -0.31,-0.08 -0.8,-0.18l0 -0.47c0.8,0.04 1.45,0.06 1.95,0.06 0.5,0 1.11,-0.02 1.83,-0.06l0 0.47c-0.61,0.09 -1.01,0.18 -1.21,0.28 -0.2,0.1 -0.5,0.36 -0.92,0.77l-2.17 2.23c0.33,0.42 0.82,1.01 1.46,1.76 0.54,0.63 0.99,1.17 1.34,1.61 0.35,0.45 0.66,0.75 0.92,0.91 0.26,0.16 0.72,0.32 1.38,0.47l0 0.47c-0.81,-0.04 -1.63,-0.06 -2.47,-0.06 -0.84,0 -1.65,0.02 -2.42,0.06l0 -0.47c0.38,-0.04 0.63,-0.1 0.74,-0.17 0.07,-0.05 0.1,-0.11 0.1,-0.19 0,-0.07 -0.07,-0.2 -0.22,-0.39l-2.5 -3.27 0.01 0.44 0 1.99c0,0.62 0.02,1 0.06,1.14 0.02,0.08 0.08,0.15 0.17,0.21 0.09,0.05 0.41,0.12 0.94,0.2 0.05,0.01 0.14,0.02 0.25,0.05l0 0.47c-0.8,-0.04 -1.53,-0.06 -2.18,-0.06 -0.54,0 -1.41,0.02 -2.61,0.06l0 -0.47c0.72,-0.12 1.14,-0.23 1.25,-0.32 0.08,-0.06 0.13,-0.17 0.14,-0.32 0.02,-0.22 0.03,-1.42 0.03,-3.62 0,-1.85 -0.01,-2.88 -0.03,-3.07 -0.02,-0.19 -0.06,-0.32 -0.14,-0.38 -0.11,-0.09 -0.53,-0.2 -1.26,-0.33l0 -0.47z"/>
   </g>
   <g id="_2368288239264">
    <path class="fil1" d="M56.58 31.17c-0.11,0.72 -0.09,0.2 -0.35,0.62l-0.85 1.94 -0.49 -0.07c-0.03,-0.53 -0.08,-1.03 -0.12,-1.57 -0.08,-1.29 -0.39,-0.65 -0.13,-1.25l0.64 0.1c0,0.89 -0.33,0.02 -0.3,0.82l0.63 0.11c0.26,-0.41 0.06,-0.36 0.04,-0.4 -0.05,-0.1 -0.07,-0.02 -0.08,-0.2 -0,-0.05 0.04,-0.2 0.06,-0.26l0.95 0.17zm-1.57 -2.29c0.3,-0.12 0.37,-0.08 0.7,0.01l-0.09 -0.49 0.46 0.05 -0.19 0.47 0.51 0.05c0.15,0.33 0.02,0.63 -0.2,0.93 -0.2,0.27 -0.39,0.55 -0.6,0.77 -0.27,-0.42 -0.69,-1.21 -0.6,-1.79zm-6.28 -6.23c-2.89,1.02 -4.39,-2.03 -2.74,-4.27 0.52,-0.71 1.57,-1.45 2.42,-1.99 0.79,-0.51 2.02,-1.25 2.34,-2.01 0.14,0.21 0.19,0.57 0.3,0.8 0.66,1.32 2.37,2.79 2.94,4.65 0.36,1.19 -0.03,2.65 -0.74,3.22 -0.93,0.74 -2.4,0.56 -3.22,-0.14 -0.06,0.96 0.72,2.02 0.91,2.53l-3.86 -0.65c0.01,-0.02 0.03,-0.03 0.04,-0.04l0.27 -0.22c0.51,-0.38 1.2,-1.18 1.34,-1.86zm-5.79 -11.57c-1.63,0.16 0.3,-1.59 0.41,-1.71 0.17,0.25 0.33,0.76 0.42,1.08 0.2,0.7 -0.03,0.86 -0.65,0.69l0.07 0.48 -0.45 -0.05 0.2 -0.48zm0.21 -2.06c-0.37,-0.04 -0.83,0.05 -0.68,-0.38 0.09,-0.25 0.09,-0.06 0.26,-0.33l0.74 -1.99c0.62,0.02 0.47,-0.14 0.66,1.23 0.03,0.25 0.06,0.61 0.12,0.86 0.12,0.57 0.25,0.01 0.18,0.75l-0.97 -0.09c0.08,-0.88 0.32,-0.07 0.27,-0.78 -0.17,-0.12 -0.5,-0.14 -0.67,-0.08 -0.21,0.53 0.15,0.03 0.09,0.83zm0.5 -3.76c-1.09,0.18 -1.18,0.84 -1.35,1.91l-3.67 22.34c-0.19,1.17 -0.36,1.85 0.58,2.37 0.53,0.3 9.73,1.72 11.1,1.94 0.94,0.15 5.03,0.94 5.66,0.84 1.21,-0.2 1.21,-1.18 1.33,-1.91l3.68 -22.35c0.19,-1.18 0.34,-1.81 -0.58,-2.36 -0.51,-0.3 -4.58,-0.86 -5.53,-1.02 -1.38,-0.23 -10.65,-1.85 -11.21,-1.76z"/>
    <path class="fil2" d="M43.66 5.26c0.55,-0.09 9.83,1.53 11.21,1.76 0.95,0.16 5.02,0.72 5.53,1.02 0.92,0.55 0.77,1.18 0.58,2.36l-3.68 22.35c-0.12,0.73 -0.12,1.71 -1.33,1.91 -0.63,0.1 -4.72,-0.69 -5.66,-0.84 -1.37,-0.22 -10.57,-1.64 -11.1,-1.94 -0.94,-0.52 -0.77,-1.21 -0.58,-2.37l3.67 -22.34c0.18,-1.07 0.26,-1.73 1.35,-1.91zm-6.26 28.04c-0.29,0.26 -0.87,0.22 -1.21,0.11 -0.36,-0.11 -0.58,-0.32 -0.76,-0.54 -0.23,-0.29 -5.12,-12.49 -5.4,-13.16 -1.03,-2.52 -2.04,-5.03 -3.08,-7.56 -0.26,-0.64 -0.5,-1.24 -0.77,-1.89 -0.78,-1.92 0.92,-2.33 2.07,-2.81 0.4,-0.17 1.49,-0.66 1.84,-0.72 -0.41,0.86 0.25,2.5 0.48,3.42l2.66 10.18c0.83,3.13 1.69,7.17 2.39,10.45 0.3,1.42 0.35,2.23 1.77,2.51zm0.62 -0.39c-1.87,0.18 -1.82,-1.33 -2.14,-2.82 -0.6,-2.79 -4.88,-21.9 -4.86,-22.39 0.02,-0.67 0.58,-1.17 1.14,-1.33l4.06 -0.88c-0.33,0.62 -0.36,0.69 -0.32,1.56 0.34,7.79 0.71,15.56 0.96,23.35 0.02,0.63 -0.06,1.15 0.23,1.66 0.25,0.45 0.53,0.54 0.94,0.84zm0.85 -0.28c-1.88,0 -1.61,-1.71 -1.64,-2.74 -0.03,-1.41 -0.04,-2.8 -0.08,-4.22 -0.15,-5.54 -0.18,-11.25 -0.31,-16.8 -0.03,-1.41 -0.36,-2.8 0.88,-3.29 0.5,-0.2 3.32,-0.19 4.06,-0.19 -0.38,1.16 -1.7,11.01 -1.91,12.45 -0.15,1.03 -1.8,11.92 -1.8,12.64 0,1.98 1.66,1.91 2.19,2.13l-1.37 0.03zm14.86 -27.48c0.9,-0.01 1.9,0.17 2.01,1.27l-7.38 -1.12c-0.01,-0.03 -0.04,-0.02 -0.06,-0.04l5.43 -0.11zm-14.16 -0.37c0.18,-0.1 7.36,-1.72 8.28,-1.84 0.98,-0.14 1.78,0.5 1.76,1.42l-10.04 0.42zm-5.29 0.25c0.46,-0.26 6.09,-2.49 7.11,-2.91 0.96,-0.4 1.94,-0.39 2.35,0.46l-9.47 2.46zm22.31 1.43c-0.29,-3.09 -3.99,-1.93 -6.08,-2.1 -0.27,-0.94 -0.45,-2.14 -2.18,-2.28 -0.86,-0.07 -2.79,0.53 -3.75,0.7 -0.19,-1.01 -1.11,-1.72 -2.33,-1.64 -0.82,0.05 -7.63,2.96 -8.64,3.38 -1.9,0.78 -3.76,1.53 -5.67,2.31 -1.21,0.49 -1.89,0.64 -2.41,1.61 -0.6,1.1 -0,2.1 0.4,3.07 1.57,3.81 3.08,7.62 4.64,11.39l4.06 9.96c0.21,0.51 0.51,0.83 0.94,1.07 1.11,0.62 2.17,0.1 3.14,-0.31 0.54,-0.23 3.08,-0.23 3.81,-0.2 0.61,0.02 5.79,0.93 6.85,1.11 1.25,0.21 5.98,1.15 6.89,0.95 0.54,-0.12 1.05,-0.44 1.28,-0.73 0.34,-0.43 0.43,-0.8 0.54,-1.48l2.83 -17.21c0.18,-1.1 1.11,-6.27 1.08,-6.91 -0.05,-1.09 -0.94,-1.88 -1.94,-2.1 -1.07,-0.23 -2.38,-0.42 -3.46,-0.57z"/>
    <path class="fil1" d="M33.48 11.14c0.41,-0.02 0.66,0.16 0.66,0.58 -0,0.52 -0.39,0.38 -0.58,0.6l0.22 0.27 -0.67 0.16 0.05 -0.5c-0.24,0.23 -0.63,0.22 -0.8,-0.13 -0.25,-0.53 0.12,-0.64 0.33,-0.85 -0.64,-0.83 0.86,-1.46 0.78,-0.14zm-0.5 -1.01c-0,-0.02 -0.05,-0.23 -0.05,-0.24 -0.01,-0.22 0.36,-0.52 -0.15,-0.57 -0.01,-0 -0.15,0.02 -0.16,0.02 -0.06,0.01 -0.22,0.08 -0.31,0.11l0.03 0.34c0.3,0.1 0.25,-0.1 0.35,0.45l-0.67 0.17c-0.22,-0.74 0.07,0.02 0.03,-1.34 -0.01,-0.47 -0.03,-0.99 -0.03,-1.48l0.44 -0.11c0.26,0.3 0.97,1.71 1.1,1.86 0.26,0.31 0.29,-0.04 0.37,0.57l-0.94 0.23zm5.05 22.78c-0.41,-0.31 -0.69,-0.4 -0.94,-0.84 -0.29,-0.52 -0.21,-1.03 -0.23,-1.66 -0.25,-7.8 -0.61,-15.56 -0.96,-23.35 -0.04,-0.87 -0.01,-0.95 0.32,-1.56l-4.06 0.88c-0.56,0.16 -1.12,0.66 -1.14,1.33 -0.01,0.49 4.26,19.6 4.86,22.39 0.32,1.49 0.27,3.01 2.14,2.82z"/>
    <path class="fil1" d="M38.16 9.59c0.2,0.2 0.8,0.93 0.89,1.16l-0.77 1.24c-0.23,-0.22 -0.76,-0.84 -0.94,-1.12l0.81 -1.28zm-0.88 -0.23c-0.06,-0.65 0.01,-0.21 0.17,-0.62l0.4 -2.13 0.44 -0.01c0.2,0.31 0.35,0.95 0.48,1.34 0.06,0.17 0.16,0.57 0.22,0.69 0.23,0.44 0.23,-0.12 0.28,0.63l-0.97 0.06c-0.04,-0.75 0.24,-0.18 0.13,-0.86 -0.29,0.01 -0.7,-0.06 -0.71,0.23 -0.01,0.3 0.12,0.11 0.22,0.34l0.04 0.34 -0.7 0.01zm1.59 23.27l1.37 -0.03c-0.52,-0.22 -2.19,-0.15 -2.19,-2.13 0,-0.71 1.65,-11.6 1.8,-12.64 0.21,-1.44 1.53,-11.29 1.91,-12.45 -0.74,-0 -3.56,-0.01 -4.06,0.19 -1.24,0.49 -0.91,1.88 -0.88,3.29 0.13,5.55 0.16,11.27 0.31,16.8 0.04,1.42 0.05,2.81 0.08,4.22 0.02,1.03 -0.25,2.74 1.64,2.74z"/>
    <path class="fil1" d="M28.63 12.29c0.12,-0.78 0.86,-0.56 0.95,0.03 0.07,0.46 -0.17,1.14 -0.15,1.74l-0.12 -0.11c-0.01,-0.01 -0.02,-0.02 -0.04,-0.03 -0.01,-0.01 -0.02,-0.02 -0.04,-0.03 -0.32,-0.28 -0.82,-0.51 -1.11,-0.77 -0.52,-0.47 -0.29,-1.23 0.5,-0.83zm-0.47 -0.51c-0.13,0.16 -0.41,0.25 -0.64,0.33 -0.03,-0.13 -0.09,-0.22 -0.1,-0.33 -0.01,-0.18 0.03,-0.04 0.04,-0.32l-0.39 -2.15 0.39 -0.17c0.24,0.15 1.28,1.53 1.4,1.64 0.34,0.31 0.26,-0.15 0.48,0.51l-0.9 0.38c-0.25,-0.73 0.04,-0.18 -0.04,-0.62 -0,-0 -0.07,-0.16 -0.08,-0.19 -0.25,0.04 -0.46,0.12 -0.64,0.28l0.05 0.27c0.33,0.17 0.24,-0.11 0.43,0.38zm9.24 21.52c-1.42,-0.28 -1.47,-1.09 -1.77,-2.51 -0.7,-3.29 -1.56,-7.32 -2.39,-10.45l-2.66 -10.18c-0.24,-0.92 -0.89,-2.56 -0.48,-3.42 -0.35,0.06 -1.43,0.55 -1.84,0.72 -1.14,0.47 -2.85,0.89 -2.07,2.81 0.27,0.65 0.51,1.25 0.77,1.89 1.04,2.53 2.05,5.04 3.08,7.56 0.27,0.67 5.17,12.87 5.4,13.16 0.17,0.22 0.4,0.43 0.76,0.54 0.34,0.11 0.92,0.15 1.21,-0.11z"/>
    <path class="fil2" d="M49.39 21.9c-2.32,0.59 -4.24,-0.75 -2.84,-2.9 0.7,-1.08 1.94,-1.62 2.93,-2.32 0.78,-0.55 0.55,-0.47 0.96,-0.82l-1.05 6.04zm-0.65 0.75c-0.14,0.68 -0.83,1.48 -1.34,1.86l-0.27 0.22c-0.01,0.01 -0.03,0.03 -0.04,0.04l3.86 0.65c-0.19,-0.51 -0.97,-1.57 -0.91,-2.53 0.81,0.7 2.28,0.88 3.22,0.14 0.71,-0.57 1.1,-2.03 0.74,-3.22 -0.57,-1.86 -2.28,-3.33 -2.94,-4.65 -0.11,-0.23 -0.16,-0.58 -0.3,-0.8 -0.32,0.76 -1.55,1.51 -2.34,2.01 -0.85,0.54 -1.9,1.28 -2.42,1.99 -1.65,2.24 -0.15,5.29 2.74,4.27z"/>
    <path class="fil1" d="M49.39 21.9l1.05 -6.04c-0.41,0.35 -0.18,0.27 -0.96,0.82 -1,0.7 -2.23,1.24 -2.93,2.32 -1.4,2.15 0.52,3.49 2.84,2.9z"/>
    <path class="fil1" d="M39.57 4.78l10.04 -0.42c0.03,-0.92 -0.78,-1.56 -1.76,-1.42 -0.92,0.13 -8.11,1.75 -8.28,1.84z"/>
    <path class="fil1" d="M34.28 5.02l9.47 -2.46c-0.41,-0.85 -1.4,-0.85 -2.35,-0.46 -1.02,0.42 -6.65,2.65 -7.11,2.91z"/>
    <path class="fil1" d="M48.3 5.26c0.02,0.02 0.05,0.01 0.06,0.04l7.38 1.12c-0.11,-1.1 -1.11,-1.28 -2.01,-1.27l-5.43 0.11z"/>
    <path class="fil2" d="M43.45 7.14c0.06,-0.14 0.05,-0.1 0.11,-0.18l0.11 0.81 -0.41 -0.04 0.2 -0.59zm-0.29 1.88c0.06,-0.8 -0.31,-0.3 -0.09,-0.83 0.18,-0.05 0.5,-0.04 0.67,0.08 0.05,0.71 -0.19,-0.1 -0.27,0.78l0.97 0.09c0.07,-0.74 -0.06,-0.18 -0.18,-0.75 -0.05,-0.25 -0.08,-0.61 -0.12,-0.86 -0.19,-1.37 -0.05,-1.2 -0.66,-1.23l-0.74 1.99c-0.17,0.28 -0.17,0.08 -0.26,0.33 -0.15,0.43 0.3,0.33 0.68,0.38z"/>
    <path class="fil2" d="M55.09 33.02l-0.06 -0.81 0.42 0.06c-0.05,0.21 -0.08,0.22 -0.16,0.4l-0.2 0.35zm-0.2 0.64l0.49 0.07 0.85 -1.94c0.26,-0.42 0.25,0.1 0.35,-0.62l-0.95 -0.17c-0.02,0.07 -0.06,0.21 -0.06,0.26 0,0.18 0.02,0.1 0.08,0.2 0.02,0.04 0.23,-0.01 -0.04,0.4l-0.63 -0.11c-0.03,-0.8 0.3,0.06 0.3,-0.82l-0.64 -0.1c-0.27,0.6 0.04,-0.03 0.13,1.25 0.03,0.54 0.08,1.04 0.12,1.57z"/>
    <path class="fil2" d="M32.28 8.15c0.13,0.22 0.31,0.46 0.41,0.73l-0.41 0.07 0 -0.81zm-0.27 -0.57c0,0.49 0.02,1.01 0.03,1.48 0.03,1.36 -0.25,0.6 -0.03,1.34l0.67 -0.17c-0.1,-0.55 -0.05,-0.35 -0.35,-0.45l-0.03 -0.34c0.09,-0.03 0.25,-0.1 0.31,-0.11 0.01,-0 0.16,-0.02 0.16,-0.02 0.51,0.05 0.14,0.35 0.15,0.57 0,0.01 0.04,0.22 0.05,0.24l0.94 -0.23c-0.08,-0.61 -0.1,-0.26 -0.37,-0.57 -0.12,-0.14 -0.83,-1.56 -1.1,-1.86l-0.44 0.11z"/>
    <path class="fil2" d="M32.7 11.28c-0.21,0.21 -0.58,0.33 -0.33,0.85 0.17,0.35 0.56,0.36 0.8,0.13l-0.05 0.5 0.67 -0.16 -0.22 -0.27c0.19,-0.22 0.57,-0.09 0.58,-0.6 0,-0.42 -0.25,-0.6 -0.66,-0.58 0.08,-1.32 -1.42,-0.69 -0.78,0.14z"/>
    <path class="fil3" d="M27.56 10.65l-0.15 -0.81c0.18,0.16 0.38,0.39 0.52,0.66l-0.38 0.15zm-0.49 -1.34l0.39 2.15c-0.01,0.29 -0.04,0.14 -0.04,0.32 0,0.11 0.06,0.2 0.1,0.33 0.23,-0.07 0.51,-0.17 0.64,-0.33 -0.2,-0.49 -0.1,-0.21 -0.43,-0.38l-0.05 -0.27c0.18,-0.16 0.39,-0.24 0.64,-0.28 0.01,0.03 0.08,0.19 0.08,0.19 0.08,0.44 -0.2,-0.11 0.04,0.62l0.9 -0.38c-0.22,-0.66 -0.15,-0.2 -0.48,-0.51 -0.12,-0.11 -1.15,-1.49 -1.4,-1.64l-0.39 0.17z"/>
    <path class="fil3" d="M37.84 8.05c0.03,-0.28 0.07,-0.63 0.17,-0.82l0.25 0.78 -0.43 0.04zm-0.56 1.3l0.7 -0.01 -0.04 -0.34c-0.1,-0.23 -0.23,-0.04 -0.22,-0.34 0.01,-0.29 0.41,-0.22 0.71,-0.23 0.11,0.69 -0.17,0.12 -0.13,0.86l0.97 -0.06c-0.04,-0.76 -0.05,-0.19 -0.28,-0.63 -0.06,-0.12 -0.17,-0.52 -0.22,-0.69 -0.13,-0.39 -0.29,-1.02 -0.48,-1.34l-0.44 0.01 -0.4 2.13c-0.16,0.41 -0.23,-0.03 -0.17,0.62z"/>
    <path class="fil3" d="M28.63 12.29c-0.78,-0.41 -1.02,0.35 -0.5,0.83 0.29,0.26 0.79,0.49 1.11,0.77 0.01,0.01 0.02,0.02 0.04,0.03 0.01,0.01 0.03,0.02 0.04,0.03l0.12 0.11c-0.02,-0.59 0.21,-1.28 0.15,-1.74 -0.08,-0.59 -0.82,-0.81 -0.95,-0.03z"/>
    <path class="fil3" d="M37.35 10.87c0.18,0.28 0.71,0.9 0.94,1.12l0.77 -1.24c-0.09,-0.23 -0.7,-0.97 -0.89,-1.16l-0.81 1.28z"/>
    <path class="fil2" d="M42.95 11.09l-0.2 0.48 0.45 0.05 -0.07 -0.48c0.63,0.17 0.85,0.01 0.65,-0.69 -0.09,-0.32 -0.25,-0.83 -0.42,-1.08 -0.11,0.12 -2.04,1.87 -0.41,1.71z"/>
    <path class="fil2" d="M55.71 28.9c-0.33,-0.09 -0.39,-0.13 -0.7,-0.01 -0.09,0.57 0.33,1.37 0.6,1.79 0.21,-0.22 0.4,-0.5 0.6,-0.77 0.22,-0.3 0.35,-0.6 0.2,-0.93l-0.51 -0.05 0.19 -0.47 -0.46 -0.05 0.09 0.49z"/>
    <path class="fil1" d="M37.84 8.05l0.43 -0.04 -0.25 -0.78c-0.1,0.2 -0.14,0.55 -0.17,0.82z"/>
    <path class="fil1" d="M27.56 10.65l0.38 -0.15c-0.15,-0.27 -0.35,-0.5 -0.52,-0.66l0.15 0.81z"/>
    <path class="fil1" d="M55.28 32.67c0.08,-0.17 0.1,-0.19 0.16,-0.4l-0.42 -0.06 0.06 0.81 0.2 -0.35z"/>
    <path class="fil1" d="M43.25 7.74l0.41 0.04 -0.11 -0.81c-0.06,0.08 -0.04,0.03 -0.11,0.18l-0.2 0.59z"/>
    <path class="fil1" d="M32.28 8.96l0.41 -0.07c-0.09,-0.27 -0.28,-0.51 -0.41,-0.73l-0 0.81z"/>
   </g>
   <g>
    <path class="fil4 str1" d="M1.13 19.14l0 -0.54c1.18,0.05 2.18,0.07 2.99,0.07 0.32,0 0.83,-0.01 1.56,-0.02 0.34,-0.01 0.65,-0.01 0.94,-0.01 1.03,0 1.78,0.15 2.23,0.46 0.6,0.4 0.91,0.98 0.91,1.75 0,0.67 -0.23,1.23 -0.68,1.68 -0.34,0.34 -0.86,0.62 -1.56,0.84 0.62,0.05 1.12,0.16 1.5,0.33 0.38,0.17 0.67,0.44 0.89,0.79 0.21,0.35 0.32,0.76 0.32,1.23 0,0.58 -0.16,1.12 -0.49,1.62 -0.33,0.5 -0.82,0.89 -1.48,1.16 -0.66,0.27 -1.5,0.41 -2.54,0.41 -0.28,0 -0.63,-0.01 -1.05,-0.02 -0.55,-0.02 -0.92,-0.04 -1.12,-0.04 -0.37,0 -1.17,0.03 -2.42,0.09l0 -0.54 1.22 -0.26c0.11,-0.03 0.19,-0.08 0.24,-0.13 0.05,-0.05 0.09,-0.13 0.12,-0.22 0.04,-0.15 0.06,-0.58 0.07,-1.28 0.01,-1.22 0.02,-2.37 0.02,-3.42 0,-0.59 -0.02,-1.51 -0.06,-2.77 -0.01,-0.38 -0.05,-0.62 -0.13,-0.75 -0.04,-0.07 -0.12,-0.12 -0.22,-0.17 -0.04,-0.02 -0.46,-0.11 -1.26,-0.27zm3.82 3.99l0.37 0c0.8,0 1.38,-0.17 1.74,-0.5 0.36,-0.34 0.54,-0.83 0.54,-1.48 0,-0.56 -0.15,-1 -0.45,-1.29 -0.3,-0.3 -0.74,-0.44 -1.31,-0.44 -0.24,0 -0.53,0.02 -0.88,0.07l0 3.64zm0 0.76l0 4.11c0.33,0.06 0.62,0.09 0.9,0.09 0.66,0 1.17,-0.18 1.51,-0.53 0.34,-0.36 0.51,-0.91 0.51,-1.65 0,-0.76 -0.19,-1.29 -0.58,-1.58 -0.38,-0.29 -1.04,-0.43 -1.96,-0.43l-0.37 0z"/>
   </g>
   <g>
    <path id="_1" class="fil4 str1" d="M53.41 19.14l0 -0.54c1.18,0.05 2.13,0.07 2.83,0.07 0.73,0 1.62,-0.02 2.65,-0.07l0 0.54 -1.06 0.21c-0.18,0.04 -0.29,0.09 -0.35,0.14 -0.04,0.03 -0.08,0.08 -0.1,0.14 -0.05,0.13 -0.08,0.38 -0.09,0.75 -0.01,0.37 -0.01,1.36 -0.01,2.97l0 1.18c0,1.1 -0.02,1.79 -0.07,2.09 -0.08,0.52 -0.26,0.97 -0.54,1.34 -0.28,0.38 -0.65,0.68 -1.13,0.89 -0.48,0.21 -1,0.32 -1.58,0.32 -0.49,0 -1.05,-0.1 -1.7,-0.3 0.12,-0.65 0.2,-1.58 0.22,-2.76l0.73 0c0.07,0.97 0.22,1.6 0.43,1.89 0.15,0.22 0.37,0.34 0.63,0.34 0.33,0 0.55,-0.2 0.64,-0.61 0.07,-0.28 0.1,-1.77 0.1,-4.46 0,-2.08 -0.01,-3.21 -0.03,-3.39 -0.02,-0.18 -0.07,-0.31 -0.16,-0.37 -0.12,-0.09 -0.59,-0.21 -1.42,-0.37z"/>
   </g>
   <g>
    <path id="_2" class="fil4 str1" d="M11.53 20.44l0 -0.47c1.08,0.04 1.92,0.06 2.52,0.06 0.61,0 1.43,-0.02 2.45,-0.06l0 0.47c-0.87,0.13 -1.34,0.22 -1.41,0.25 -0.13,0.07 -0.19,0.25 -0.19,0.55l-0.03 1.62 0 5.26 2.31 0c0.38,0 0.63,-0.03 0.76,-0.08 0.17,-0.07 0.34,-0.2 0.5,-0.38 0.16,-0.19 0.44,-0.61 0.85,-1.29l0.57 0c-0.28,0.78 -0.56,1.63 -0.83,2.56 -1.79,-0.04 -3.28,-0.06 -4.47,-0.06 -0.97,0 -1.98,0.02 -3.03,0.06l0 -0.47c0.74,-0.15 1.15,-0.25 1.23,-0.3 0.07,-0.05 0.12,-0.16 0.14,-0.31 0.02,-0.15 0.03,-1.16 0.03,-3.03l0 -2.3 0 -0.4c0,-0.68 -0.02,-1.08 -0.07,-1.21 -0.03,-0.1 -0.09,-0.17 -0.17,-0.21 -0.08,-0.04 -0.47,-0.13 -1.16,-0.26z"/>
   </g>
   <g>
    <path id="_3" class="fil4 str1" d="M26.2 28.94l0 -0.47c0.51,-0.09 0.81,-0.17 0.89,-0.23 0.08,-0.06 0.12,-0.14 0.12,-0.24 0,-0.06 -0.01,-0.13 -0.04,-0.2 -0.07,-0.18 -0.29,-0.71 -0.66,-1.59 -0.59,-0.01 -1.08,-0.01 -1.48,-0.01 -0.32,0 -0.86,0 -1.61,0.01 -0.47,1.1 -0.71,1.71 -0.71,1.82 0,0.1 0.03,0.17 0.1,0.22 0.07,0.05 0.36,0.12 0.9,0.22l0 0.47c-0.53,-0.04 -1.04,-0.06 -1.52,-0.06 -0.52,0 -1.05,0.02 -1.59,0.06l0 -0.47c0.38,-0.08 0.64,-0.17 0.78,-0.27 0.1,-0.07 0.19,-0.17 0.27,-0.3 0.16,-0.27 0.66,-1.29 1.47,-3.09 0.52,-1.13 1.26,-2.81 2.22,-5.03l0.5 0c0.39,0.99 1.2,2.84 2.43,5.55 0.68,1.51 1.09,2.36 1.23,2.57 0.09,0.14 0.18,0.25 0.27,0.3 0.09,0.06 0.38,0.15 0.86,0.28l0 0.47c-0.74,-0.04 -1.44,-0.06 -2.07,-0.06 -0.63,0 -1.42,0.02 -2.36,0.06zm-1.2 -6.42l-1.27 2.97 1.23 0c0.3,0 0.72,0 1.27,0l-1.23 -2.97z"/>
   </g>
   <g>
    <path id="_4" class="fil4 str1" d="M39.7 27.2l0.32 0.61c-0.73,0.48 -1.4,0.82 -2.02,1.02 -0.62,0.2 -1.26,0.3 -1.94,0.3 -1.42,0 -2.54,-0.41 -3.36,-1.22 -0.82,-0.81 -1.22,-1.9 -1.22,-3.28 0,-1.46 0.46,-2.64 1.38,-3.52 0.92,-0.89 2.19,-1.34 3.82,-1.34 0.52,0 1.02,0.04 1.5,0.12 0.48,0.08 1.08,0.24 1.79,0.46 -0.02,0.27 -0.03,0.56 -0.03,0.86 0,0.51 0.03,1.13 0.08,1.87l-0.7 0c-0.21,-0.81 -0.35,-1.29 -0.42,-1.43 -0.16,-0.32 -0.41,-0.58 -0.77,-0.8 -0.36,-0.22 -0.84,-0.33 -1.44,-0.33 -0.92,0 -1.64,0.28 -2.14,0.85 -0.61,0.68 -0.91,1.62 -0.91,2.82 0,1.24 0.3,2.18 0.91,2.83 0.61,0.65 1.42,0.97 2.45,0.97 0.91,0 1.81,-0.26 2.7,-0.79z"/>
   </g>
   <g>
    <path id="_5" class="fil4 str1" d="M41.34 20.44l0 -0.47c0.81,0.04 1.62,0.06 2.41,0.06 0.81,0 1.6,-0.02 2.38,-0.06l0 0.47 -1.05 0.21c-0.13,0.05 -0.22,0.11 -0.28,0.2 -0.05,0.08 -0.08,0.27 -0.08,0.57l-0.01 2.87c1.27,-1.24 2.18,-2.2 2.73,-2.87 0.26,-0.32 0.39,-0.53 0.39,-0.63 0,-0.07 -0.04,-0.13 -0.13,-0.16 -0.04,-0.02 -0.31,-0.08 -0.8,-0.18l0 -0.47c0.8,0.04 1.45,0.06 1.95,0.06 0.5,0 1.11,-0.02 1.83,-0.06l0 0.47c-0.61,0.09 -1.01,0.18 -1.21,0.28 -0.2,0.1 -0.5,0.36 -0.92,0.77l-2.17 2.23c0.33,0.42 0.82,1.01 1.46,1.76 0.54,0.63 0.99,1.17 1.34,1.61 0.35,0.45 0.66,0.75 0.92,0.91 0.26,0.16 0.72,0.32 1.38,0.47l0 0.47c-0.81,-0.04 -1.63,-0.06 -2.47,-0.06 -0.84,0 -1.65,0.02 -2.42,0.06l0 -0.47c0.38,-0.04 0.63,-0.1 0.74,-0.17 0.07,-0.05 0.1,-0.11 0.1,-0.19 0,-0.07 -0.07,-0.2 -0.22,-0.39l-2.5 -3.27 0.01 0.44 0 1.99c0,0.62 0.02,1 0.06,1.14 0.02,0.08 0.08,0.15 0.17,0.21 0.09,0.05 0.41,0.12 0.94,0.2 0.05,0.01 0.14,0.02 0.25,0.05l0 0.47c-0.8,-0.04 -1.53,-0.06 -2.18,-0.06 -0.54,0 -1.41,0.02 -2.61,0.06l0 -0.47c0.72,-0.12 1.14,-0.23 1.25,-0.32 0.08,-0.06 0.13,-0.17 0.14,-0.32 0.02,-0.22 0.03,-1.42 0.03,-3.62 0,-1.85 -0.01,-2.88 -0.03,-3.07 -0.02,-0.19 -0.06,-0.32 -0.14,-0.38 -0.11,-0.09 -0.53,-0.2 -1.26,-0.33z"/>
   </g>
   <g>
    <path id="_6" class="fil4 str1" d="M65.07 28.94l0 -0.47c0.51,-0.09 0.81,-0.17 0.89,-0.23 0.08,-0.06 0.12,-0.14 0.12,-0.24 0,-0.06 -0.01,-0.13 -0.04,-0.2 -0.07,-0.18 -0.29,-0.71 -0.66,-1.59 -0.59,-0.01 -1.08,-0.01 -1.48,-0.01 -0.32,0 -0.86,0 -1.61,0.01 -0.47,1.1 -0.71,1.71 -0.71,1.82 0,0.1 0.03,0.17 0.1,0.22 0.07,0.05 0.36,0.12 0.9,0.22l0 0.47c-0.53,-0.04 -1.04,-0.06 -1.52,-0.06 -0.52,0 -1.05,0.02 -1.59,0.06l0 -0.47c0.38,-0.08 0.64,-0.17 0.78,-0.27 0.1,-0.07 0.19,-0.17 0.27,-0.3 0.16,-0.27 0.66,-1.29 1.47,-3.09 0.52,-1.13 1.26,-2.81 2.22,-5.03l0.5 0c0.39,0.99 1.2,2.84 2.43,5.55 0.68,1.51 1.09,2.36 1.23,2.57 0.09,0.14 0.18,0.25 0.27,0.3 0.09,0.06 0.38,0.15 0.86,0.28l0 0.47c-0.74,-0.04 -1.44,-0.06 -2.07,-0.06 -0.63,0 -1.42,0.02 -2.36,0.06zm-1.2 -6.42l-1.27 2.97 1.23 0c0.3,0 0.72,0 1.27,0l-1.23 -2.97z"/>
   </g>
   <g>
    <path id="_7" class="fil4 str1" d="M78.56 27.2l0.32 0.61c-0.73,0.48 -1.4,0.82 -2.02,1.02 -0.62,0.2 -1.26,0.3 -1.94,0.3 -1.42,0 -2.54,-0.41 -3.36,-1.22 -0.82,-0.81 -1.22,-1.9 -1.22,-3.28 0,-1.46 0.46,-2.64 1.38,-3.52 0.92,-0.89 2.19,-1.34 3.82,-1.34 0.52,0 1.02,0.04 1.5,0.12 0.48,0.08 1.08,0.24 1.79,0.46 -0.02,0.27 -0.03,0.56 -0.03,0.86 0,0.51 0.03,1.13 0.08,1.87l-0.7 0c-0.21,-0.81 -0.35,-1.29 -0.42,-1.43 -0.16,-0.32 -0.41,-0.58 -0.77,-0.8 -0.36,-0.22 -0.84,-0.33 -1.44,-0.33 -0.92,0 -1.64,0.28 -2.14,0.85 -0.61,0.68 -0.91,1.62 -0.91,2.82 0,1.24 0.3,2.18 0.91,2.83 0.61,0.65 1.42,0.97 2.45,0.97 0.91,0 1.81,-0.26 2.7,-0.79z"/>
   </g>
   <g>
    <path id="_8" class="fil4 str1" d="M80.21 20.44l0 -0.47c0.81,0.04 1.62,0.06 2.41,0.06 0.81,0 1.6,-0.02 2.38,-0.06l0 0.47 -1.05 0.21c-0.13,0.05 -0.22,0.11 -0.28,0.2 -0.05,0.08 -0.08,0.27 -0.08,0.57l-0.01 2.87c1.27,-1.24 2.18,-2.2 2.73,-2.87 0.26,-0.32 0.39,-0.53 0.39,-0.63 0,-0.07 -0.04,-0.13 -0.13,-0.16 -0.04,-0.02 -0.31,-0.08 -0.8,-0.18l0 -0.47c0.8,0.04 1.45,0.06 1.95,0.06 0.5,0 1.11,-0.02 1.83,-0.06l0 0.47c-0.61,0.09 -1.01,0.18 -1.21,0.28 -0.2,0.1 -0.5,0.36 -0.92,0.77l-2.17 2.23c0.33,0.42 0.82,1.01 1.46,1.76 0.54,0.63 0.99,1.17 1.34,1.61 0.35,0.45 0.66,0.75 0.92,0.91 0.26,0.16 0.72,0.32 1.38,0.47l0 0.47c-0.81,-0.04 -1.63,-0.06 -2.47,-0.06 -0.84,0 -1.65,0.02 -2.42,0.06l0 -0.47c0.38,-0.04 0.63,-0.1 0.74,-0.17 0.07,-0.05 0.1,-0.11 0.1,-0.19 0,-0.07 -0.07,-0.2 -0.22,-0.39l-2.5 -3.27 0.01 0.44 0 1.99c0,0.62 0.02,1 0.06,1.14 0.02,0.08 0.08,0.15 0.17,0.21 0.09,0.05 0.41,0.12 0.94,0.2 0.05,0.01 0.14,0.02 0.25,0.05l0 0.47c-0.8,-0.04 -1.53,-0.06 -2.18,-0.06 -0.54,0 -1.41,0.02 -2.61,0.06l0 -0.47c0.72,-0.12 1.14,-0.23 1.25,-0.32 0.08,-0.06 0.13,-0.17 0.14,-0.32 0.02,-0.22 0.03,-1.42 0.03,-3.62 0,-1.85 -0.01,-2.88 -0.03,-3.07 -0.02,-0.19 -0.06,-0.32 -0.14,-0.38 -0.11,-0.09 -0.53,-0.2 -1.26,-0.33z"/>
   </g>
   <path id="_9" class="fil5" d="M1.13 19.14l0 -0.54c1.18,0.05 2.18,0.07 2.99,0.07 0.32,0 0.83,-0.01 1.56,-0.02 0.34,-0.01 0.65,-0.01 0.94,-0.01 1.03,0 1.78,0.15 2.23,0.46 0.6,0.4 0.91,0.98 0.91,1.75 0,0.67 -0.23,1.23 -0.68,1.68 -0.34,0.34 -0.86,0.62 -1.56,0.84 0.62,0.05 1.12,0.16 1.5,0.33 0.38,0.17 0.67,0.44 0.89,0.79 0.21,0.35 0.32,0.76 0.32,1.23 0,0.58 -0.16,1.12 -0.49,1.62 -0.33,0.5 -0.82,0.89 -1.48,1.16 -0.66,0.27 -1.5,0.41 -2.54,0.41 -0.28,0 -0.63,-0.01 -1.05,-0.02 -0.55,-0.02 -0.92,-0.04 -1.12,-0.04 -0.37,0 -1.17,0.03 -2.42,0.09l0 -0.54 1.22 -0.26c0.11,-0.03 0.19,-0.08 0.24,-0.13 0.05,-0.05 0.09,-0.13 0.12,-0.22 0.04,-0.15 0.06,-0.58 0.07,-1.28 0.01,-1.22 0.02,-2.37 0.02,-3.42 0,-0.59 -0.02,-1.51 -0.06,-2.77 -0.01,-0.38 -0.05,-0.62 -0.13,-0.75 -0.04,-0.07 -0.12,-0.12 -0.22,-0.17 -0.04,-0.02 -0.46,-0.11 -1.26,-0.27zm3.82 3.99l0.37 0c0.8,0 1.38,-0.17 1.74,-0.5 0.36,-0.34 0.54,-0.83 0.54,-1.48 0,-0.56 -0.15,-1 -0.45,-1.29 -0.3,-0.3 -0.74,-0.44 -1.31,-0.44 -0.24,0 -0.53,0.02 -0.88,0.07l0 3.64zm0 0.76l0 4.11c0.33,0.06 0.62,0.09 0.9,0.09 0.66,0 1.17,-0.18 1.51,-0.53 0.34,-0.36 0.51,-0.91 0.51,-1.65 0,-0.76 -0.19,-1.29 -0.58,-1.58 -0.38,-0.29 -1.04,-0.43 -1.96,-0.43l-0.37 0z"/>
   <path id="_10" class="fil5" d="M53.41 19.14l0 -0.54c1.18,0.05 2.13,0.07 2.83,0.07 0.73,0 1.62,-0.02 2.65,-0.07l0 0.54 -1.06 0.21c-0.18,0.04 -0.29,0.09 -0.35,0.14 -0.04,0.03 -0.08,0.08 -0.1,0.14 -0.05,0.13 -0.08,0.38 -0.09,0.75 -0.01,0.37 -0.01,1.36 -0.01,2.97l0 1.18c0,1.1 -0.02,1.79 -0.07,2.09 -0.08,0.52 -0.26,0.97 -0.54,1.34 -0.28,0.38 -0.65,0.68 -1.13,0.89 -0.48,0.21 -1,0.32 -1.58,0.32 -0.49,0 -1.05,-0.1 -1.7,-0.3 0.12,-0.65 0.2,-1.58 0.22,-2.76l0.73 0c0.07,0.97 0.22,1.6 0.43,1.89 0.15,0.22 0.37,0.34 0.63,0.34 0.33,0 0.55,-0.2 0.64,-0.61 0.07,-0.28 0.1,-1.77 0.1,-4.46 0,-2.08 -0.01,-3.21 -0.03,-3.39 -0.02,-0.18 -0.07,-0.31 -0.16,-0.37 -0.12,-0.09 -0.59,-0.21 -1.42,-0.37z"/>
   <path id="_11" class="fil5" d="M11.53 20.44l0 -0.47c1.08,0.04 1.92,0.06 2.52,0.06 0.61,0 1.43,-0.02 2.45,-0.06l0 0.47c-0.87,0.13 -1.34,0.22 -1.41,0.25 -0.13,0.07 -0.19,0.25 -0.19,0.55l-0.03 1.62 0 5.26 2.31 0c0.38,0 0.63,-0.03 0.76,-0.08 0.17,-0.07 0.34,-0.2 0.5,-0.38 0.16,-0.19 0.44,-0.61 0.85,-1.29l0.57 0c-0.28,0.78 -0.56,1.63 -0.83,2.56 -1.79,-0.04 -3.28,-0.06 -4.47,-0.06 -0.97,0 -1.98,0.02 -3.03,0.06l0 -0.47c0.74,-0.15 1.15,-0.25 1.23,-0.3 0.07,-0.05 0.12,-0.16 0.14,-0.31 0.02,-0.15 0.03,-1.16 0.03,-3.03l0 -2.3 0 -0.4c0,-0.68 -0.02,-1.08 -0.07,-1.21 -0.03,-0.1 -0.09,-0.17 -0.17,-0.21 -0.08,-0.04 -0.47,-0.13 -1.16,-0.26z"/>
   <path id="_12" class="fil5" d="M26.2 28.94l0 -0.47c0.51,-0.09 0.81,-0.17 0.89,-0.23 0.08,-0.06 0.12,-0.14 0.12,-0.24 0,-0.06 -0.01,-0.13 -0.04,-0.2 -0.07,-0.18 -0.29,-0.71 -0.66,-1.59 -0.59,-0.01 -1.08,-0.01 -1.48,-0.01 -0.32,0 -0.86,0 -1.61,0.01 -0.47,1.1 -0.71,1.71 -0.71,1.82 0,0.1 0.03,0.17 0.1,0.22 0.07,0.05 0.36,0.12 0.9,0.22l0 0.47c-0.53,-0.04 -1.04,-0.06 -1.52,-0.06 -0.52,0 -1.05,0.02 -1.59,0.06l0 -0.47c0.38,-0.08 0.64,-0.17 0.78,-0.27 0.1,-0.07 0.19,-0.17 0.27,-0.3 0.16,-0.27 0.66,-1.29 1.47,-3.09 0.52,-1.13 1.26,-2.81 2.22,-5.03l0.5 0c0.39,0.99 1.2,2.84 2.43,5.55 0.68,1.51 1.09,2.36 1.23,2.57 0.09,0.14 0.18,0.25 0.27,0.3 0.09,0.06 0.38,0.15 0.86,0.28l0 0.47c-0.74,-0.04 -1.44,-0.06 -2.07,-0.06 -0.63,0 -1.42,0.02 -2.36,0.06zm-1.2 -6.42l-1.27 2.97 1.23 0c0.3,0 0.72,0 1.27,0l-1.23 -2.97z"/>
   <path id="_13" class="fil5" d="M39.7 27.2l0.32 0.61c-0.73,0.48 -1.4,0.82 -2.02,1.02 -0.62,0.2 -1.26,0.3 -1.94,0.3 -1.42,0 -2.54,-0.41 -3.36,-1.22 -0.82,-0.81 -1.22,-1.9 -1.22,-3.28 0,-1.46 0.46,-2.64 1.38,-3.52 0.92,-0.89 2.19,-1.34 3.82,-1.34 0.52,0 1.02,0.04 1.5,0.12 0.48,0.08 1.08,0.24 1.79,0.46 -0.02,0.27 -0.03,0.56 -0.03,0.86 0,0.51 0.03,1.13 0.08,1.87l-0.7 0c-0.21,-0.81 -0.35,-1.29 -0.42,-1.43 -0.16,-0.32 -0.41,-0.58 -0.77,-0.8 -0.36,-0.22 -0.84,-0.33 -1.44,-0.33 -0.92,0 -1.64,0.28 -2.14,0.85 -0.61,0.68 -0.91,1.62 -0.91,2.82 0,1.24 0.3,2.18 0.91,2.83 0.61,0.65 1.42,0.97 2.45,0.97 0.91,0 1.81,-0.26 2.7,-0.79z"/>
   <path id="_14" class="fil5" d="M41.34 20.44l0 -0.47c0.81,0.04 1.62,0.06 2.41,0.06 0.81,0 1.6,-0.02 2.38,-0.06l0 0.47 -1.05 0.21c-0.13,0.05 -0.22,0.11 -0.28,0.2 -0.05,0.08 -0.08,0.27 -0.08,0.57l-0.01 2.87c1.27,-1.24 2.18,-2.2 2.73,-2.87 0.26,-0.32 0.39,-0.53 0.39,-0.63 0,-0.07 -0.04,-0.13 -0.13,-0.16 -0.04,-0.02 -0.31,-0.08 -0.8,-0.18l0 -0.47c0.8,0.04 1.45,0.06 1.95,0.06 0.5,0 1.11,-0.02 1.83,-0.06l0 0.47c-0.61,0.09 -1.01,0.18 -1.21,0.28 -0.2,0.1 -0.5,0.36 -0.92,0.77l-2.17 2.23c0.33,0.42 0.82,1.01 1.46,1.76 0.54,0.63 0.99,1.17 1.34,1.61 0.35,0.45 0.66,0.75 0.92,0.91 0.26,0.16 0.72,0.32 1.38,0.47l0 0.47c-0.81,-0.04 -1.63,-0.06 -2.47,-0.06 -0.84,0 -1.65,0.02 -2.42,0.06l0 -0.47c0.38,-0.04 0.63,-0.1 0.74,-0.17 0.07,-0.05 0.1,-0.11 0.1,-0.19 0,-0.07 -0.07,-0.2 -0.22,-0.39l-2.5 -3.27 0.01 0.44 0 1.99c0,0.62 0.02,1 0.06,1.14 0.02,0.08 0.08,0.15 0.17,0.21 0.09,0.05 0.41,0.12 0.94,0.2 0.05,0.01 0.14,0.02 0.25,0.05l0 0.47c-0.8,-0.04 -1.53,-0.06 -2.18,-0.06 -0.54,0 -1.41,0.02 -2.61,0.06l0 -0.47c0.72,-0.12 1.14,-0.23 1.25,-0.32 0.08,-0.06 0.13,-0.17 0.14,-0.32 0.02,-0.22 0.03,-1.42 0.03,-3.62 0,-1.85 -0.01,-2.88 -0.03,-3.07 -0.02,-0.19 -0.06,-0.32 -0.14,-0.38 -0.11,-0.09 -0.53,-0.2 -1.26,-0.33z"/>
   <path id="_15" class="fil5" d="M65.07 28.94l0 -0.47c0.51,-0.09 0.81,-0.17 0.89,-0.23 0.08,-0.06 0.12,-0.14 0.12,-0.24 0,-0.06 -0.01,-0.13 -0.04,-0.2 -0.07,-0.18 -0.29,-0.71 -0.66,-1.59 -0.59,-0.01 -1.08,-0.01 -1.48,-0.01 -0.32,0 -0.86,0 -1.61,0.01 -0.47,1.1 -0.71,1.71 -0.71,1.82 0,0.1 0.03,0.17 0.1,0.22 0.07,0.05 0.36,0.12 0.9,0.22l0 0.47c-0.53,-0.04 -1.04,-0.06 -1.52,-0.06 -0.52,0 -1.05,0.02 -1.59,0.06l0 -0.47c0.38,-0.08 0.64,-0.17 0.78,-0.27 0.1,-0.07 0.19,-0.17 0.27,-0.3 0.16,-0.27 0.66,-1.29 1.47,-3.09 0.52,-1.13 1.26,-2.81 2.22,-5.03l0.5 0c0.39,0.99 1.2,2.84 2.43,5.55 0.68,1.51 1.09,2.36 1.23,2.57 0.09,0.14 0.18,0.25 0.27,0.3 0.09,0.06 0.38,0.15 0.86,0.28l0 0.47c-0.74,-0.04 -1.44,-0.06 -2.07,-0.06 -0.63,0 -1.42,0.02 -2.36,0.06zm-1.2 -6.42l-1.27 2.97 1.23 0c0.3,0 0.72,0 1.27,0l-1.23 -2.97z"/>
   <path id="_16" class="fil5" d="M78.56 27.2l0.32 0.61c-0.73,0.48 -1.4,0.82 -2.02,1.02 -0.62,0.2 -1.26,0.3 -1.94,0.3 -1.42,0 -2.54,-0.41 -3.36,-1.22 -0.82,-0.81 -1.22,-1.9 -1.22,-3.28 0,-1.46 0.46,-2.64 1.38,-3.52 0.92,-0.89 2.19,-1.34 3.82,-1.34 0.52,0 1.02,0.04 1.5,0.12 0.48,0.08 1.08,0.24 1.79,0.46 -0.02,0.27 -0.03,0.56 -0.03,0.86 0,0.51 0.03,1.13 0.08,1.87l-0.7 0c-0.21,-0.81 -0.35,-1.29 -0.42,-1.43 -0.16,-0.32 -0.41,-0.58 -0.77,-0.8 -0.36,-0.22 -0.84,-0.33 -1.44,-0.33 -0.92,0 -1.64,0.28 -2.14,0.85 -0.61,0.68 -0.91,1.62 -0.91,2.82 0,1.24 0.3,2.18 0.91,2.83 0.61,0.65 1.42,0.97 2.45,0.97 0.91,0 1.81,-0.26 2.7,-0.79z"/>
   <path id="_17" class="fil5" d="M80.21 20.44l0 -0.47c0.81,0.04 1.62,0.06 2.41,0.06 0.81,0 1.6,-0.02 2.38,-0.06l0 0.47 -1.05 0.21c-0.13,0.05 -0.22,0.11 -0.28,0.2 -0.05,0.08 -0.08,0.27 -0.08,0.57l-0.01 2.87c1.27,-1.24 2.18,-2.2 2.73,-2.87 0.26,-0.32 0.39,-0.53 0.39,-0.63 0,-0.07 -0.04,-0.13 -0.13,-0.16 -0.04,-0.02 -0.31,-0.08 -0.8,-0.18l0 -0.47c0.8,0.04 1.45,0.06 1.95,0.06 0.5,0 1.11,-0.02 1.83,-0.06l0 0.47c-0.61,0.09 -1.01,0.18 -1.21,0.28 -0.2,0.1 -0.5,0.36 -0.92,0.77l-2.17 2.23c0.33,0.42 0.82,1.01 1.46,1.76 0.54,0.63 0.99,1.17 1.34,1.61 0.35,0.45 0.66,0.75 0.92,0.91 0.26,0.16 0.72,0.32 1.38,0.47l0 0.47c-0.81,-0.04 -1.63,-0.06 -2.47,-0.06 -0.84,0 -1.65,0.02 -2.42,0.06l0 -0.47c0.38,-0.04 0.63,-0.1 0.74,-0.17 0.07,-0.05 0.1,-0.11 0.1,-0.19 0,-0.07 -0.07,-0.2 -0.22,-0.39l-2.5 -3.27 0.01 0.44 0 1.99c0,0.62 0.02,1 0.06,1.14 0.02,0.08 0.08,0.15 0.17,0.21 0.09,0.05 0.41,0.12 0.94,0.2 0.05,0.01 0.14,0.02 0.25,0.05l0 0.47c-0.8,-0.04 -1.53,-0.06 -2.18,-0.06 -0.54,0 -1.41,0.02 -2.61,0.06l0 -0.47c0.72,-0.12 1.14,-0.23 1.25,-0.32 0.08,-0.06 0.13,-0.17 0.14,-0.32 0.02,-0.22 0.03,-1.42 0.03,-3.62 0,-1.85 -0.01,-2.88 -0.03,-3.07 -0.02,-0.19 -0.06,-0.32 -0.14,-0.38 -0.11,-0.09 -0.53,-0.2 -1.26,-0.33z"/>
   <g>
    <path class="fil4 str2" d="M1.13 19.14l0 -0.54c1.18,0.05 2.18,0.07 2.99,0.07 0.32,0 0.83,-0.01 1.56,-0.02 0.34,-0.01 0.65,-0.01 0.94,-0.01 1.03,0 1.78,0.15 2.23,0.46 0.6,0.4 0.91,0.98 0.91,1.75 0,0.67 -0.23,1.23 -0.68,1.68 -0.34,0.34 -0.86,0.62 -1.56,0.84 0.62,0.05 1.12,0.16 1.5,0.33 0.38,0.17 0.67,0.44 0.89,0.79 0.21,0.35 0.32,0.76 0.32,1.23 0,0.58 -0.16,1.12 -0.49,1.62 -0.33,0.5 -0.82,0.89 -1.48,1.16 -0.66,0.27 -1.5,0.41 -2.54,0.41 -0.28,0 -0.63,-0.01 -1.05,-0.02 -0.55,-0.02 -0.92,-0.04 -1.12,-0.04 -0.37,0 -1.17,0.03 -2.42,0.09l0 -0.54 1.22 -0.26c0.11,-0.03 0.19,-0.08 0.24,-0.13 0.05,-0.05 0.09,-0.13 0.12,-0.22 0.04,-0.15 0.06,-0.58 0.07,-1.28 0.01,-1.22 0.02,-2.37 0.02,-3.42 0,-0.59 -0.02,-1.51 -0.06,-2.77 -0.01,-0.38 -0.05,-0.62 -0.13,-0.75 -0.04,-0.07 -0.12,-0.12 -0.22,-0.17 -0.04,-0.02 -0.46,-0.11 -1.26,-0.27zm3.82 3.99l0.37 0c0.8,0 1.38,-0.17 1.74,-0.5 0.36,-0.34 0.54,-0.83 0.54,-1.48 0,-0.56 -0.15,-1 -0.45,-1.29 -0.3,-0.3 -0.74,-0.44 -1.31,-0.44 -0.24,0 -0.53,0.02 -0.88,0.07l0 3.64zm0 0.76l0 4.11c0.33,0.06 0.62,0.09 0.9,0.09 0.66,0 1.17,-0.18 1.51,-0.53 0.34,-0.36 0.51,-0.91 0.51,-1.65 0,-0.76 -0.19,-1.29 -0.58,-1.58 -0.38,-0.29 -1.04,-0.43 -1.96,-0.43l-0.37 0z"/>
   </g>
   <g>
    <path id="_1_0" class="fil4 str2" d="M53.41 19.14l0 -0.54c1.18,0.05 2.13,0.07 2.83,0.07 0.73,0 1.62,-0.02 2.65,-0.07l0 0.54 -1.06 0.21c-0.18,0.04 -0.29,0.09 -0.35,0.14 -0.04,0.03 -0.08,0.08 -0.1,0.14 -0.05,0.13 -0.08,0.38 -0.09,0.75 -0.01,0.37 -0.01,1.36 -0.01,2.97l0 1.18c0,1.1 -0.02,1.79 -0.07,2.09 -0.08,0.52 -0.26,0.97 -0.54,1.34 -0.28,0.38 -0.65,0.68 -1.13,0.89 -0.48,0.21 -1,0.32 -1.58,0.32 -0.49,0 -1.05,-0.1 -1.7,-0.3 0.12,-0.65 0.2,-1.58 0.22,-2.76l0.73 0c0.07,0.97 0.22,1.6 0.43,1.89 0.15,0.22 0.37,0.34 0.63,0.34 0.33,0 0.55,-0.2 0.64,-0.61 0.07,-0.28 0.1,-1.77 0.1,-4.46 0,-2.08 -0.01,-3.21 -0.03,-3.39 -0.02,-0.18 -0.07,-0.31 -0.16,-0.37 -0.12,-0.09 -0.59,-0.21 -1.42,-0.37z"/>
   </g>
   <g>
    <path id="_2_1" class="fil4 str2" d="M11.53 20.44l0 -0.47c1.08,0.04 1.92,0.06 2.52,0.06 0.61,0 1.43,-0.02 2.45,-0.06l0 0.47c-0.87,0.13 -1.34,0.22 -1.41,0.25 -0.13,0.07 -0.19,0.25 -0.19,0.55l-0.03 1.62 0 5.26 2.31 0c0.38,0 0.63,-0.03 0.76,-0.08 0.17,-0.07 0.34,-0.2 0.5,-0.38 0.16,-0.19 0.44,-0.61 0.85,-1.29l0.57 0c-0.28,0.78 -0.56,1.63 -0.83,2.56 -1.79,-0.04 -3.28,-0.06 -4.47,-0.06 -0.97,0 -1.98,0.02 -3.03,0.06l0 -0.47c0.74,-0.15 1.15,-0.25 1.23,-0.3 0.07,-0.05 0.12,-0.16 0.14,-0.31 0.02,-0.15 0.03,-1.16 0.03,-3.03l0 -2.3 0 -0.4c0,-0.68 -0.02,-1.08 -0.07,-1.21 -0.03,-0.1 -0.09,-0.17 -0.17,-0.21 -0.08,-0.04 -0.47,-0.13 -1.16,-0.26z"/>
   </g>
   <g>
    <path id="_3_2" class="fil4 str2" d="M26.2 28.94l0 -0.47c0.51,-0.09 0.81,-0.17 0.89,-0.23 0.08,-0.06 0.12,-0.14 0.12,-0.24 0,-0.06 -0.01,-0.13 -0.04,-0.2 -0.07,-0.18 -0.29,-0.71 -0.66,-1.59 -0.59,-0.01 -1.08,-0.01 -1.48,-0.01 -0.32,0 -0.86,0 -1.61,0.01 -0.47,1.1 -0.71,1.71 -0.71,1.82 0,0.1 0.03,0.17 0.1,0.22 0.07,0.05 0.36,0.12 0.9,0.22l0 0.47c-0.53,-0.04 -1.04,-0.06 -1.52,-0.06 -0.52,0 -1.05,0.02 -1.59,0.06l0 -0.47c0.38,-0.08 0.64,-0.17 0.78,-0.27 0.1,-0.07 0.19,-0.17 0.27,-0.3 0.16,-0.27 0.66,-1.29 1.47,-3.09 0.52,-1.13 1.26,-2.81 2.22,-5.03l0.5 0c0.39,0.99 1.2,2.84 2.43,5.55 0.68,1.51 1.09,2.36 1.23,2.57 0.09,0.14 0.18,0.25 0.27,0.3 0.09,0.06 0.38,0.15 0.86,0.28l0 0.47c-0.74,-0.04 -1.44,-0.06 -2.07,-0.06 -0.63,0 -1.42,0.02 -2.36,0.06zm-1.2 -6.42l-1.27 2.97 1.23 0c0.3,0 0.72,0 1.27,0l-1.23 -2.97z"/>
   </g>
   <g>
    <path id="_4_3" class="fil4 str2" d="M39.7 27.2l0.32 0.61c-0.73,0.48 -1.4,0.82 -2.02,1.02 -0.62,0.2 -1.26,0.3 -1.94,0.3 -1.42,0 -2.54,-0.41 -3.36,-1.22 -0.82,-0.81 -1.22,-1.9 -1.22,-3.28 0,-1.46 0.46,-2.64 1.38,-3.52 0.92,-0.89 2.19,-1.34 3.82,-1.34 0.52,0 1.02,0.04 1.5,0.12 0.48,0.08 1.08,0.24 1.79,0.46 -0.02,0.27 -0.03,0.56 -0.03,0.86 0,0.51 0.03,1.13 0.08,1.87l-0.7 0c-0.21,-0.81 -0.35,-1.29 -0.42,-1.43 -0.16,-0.32 -0.41,-0.58 -0.77,-0.8 -0.36,-0.22 -0.84,-0.33 -1.44,-0.33 -0.92,0 -1.64,0.28 -2.14,0.85 -0.61,0.68 -0.91,1.62 -0.91,2.82 0,1.24 0.3,2.18 0.91,2.83 0.61,0.65 1.42,0.97 2.45,0.97 0.91,0 1.81,-0.26 2.7,-0.79z"/>
   </g>
   <g>
    <path id="_5_4" class="fil4 str2" d="M41.34 20.44l0 -0.47c0.81,0.04 1.62,0.06 2.41,0.06 0.81,0 1.6,-0.02 2.38,-0.06l0 0.47 -1.05 0.21c-0.13,0.05 -0.22,0.11 -0.28,0.2 -0.05,0.08 -0.08,0.27 -0.08,0.57l-0.01 2.87c1.27,-1.24 2.18,-2.2 2.73,-2.87 0.26,-0.32 0.39,-0.53 0.39,-0.63 0,-0.07 -0.04,-0.13 -0.13,-0.16 -0.04,-0.02 -0.31,-0.08 -0.8,-0.18l0 -0.47c0.8,0.04 1.45,0.06 1.95,0.06 0.5,0 1.11,-0.02 1.83,-0.06l0 0.47c-0.61,0.09 -1.01,0.18 -1.21,0.28 -0.2,0.1 -0.5,0.36 -0.92,0.77l-2.17 2.23c0.33,0.42 0.82,1.01 1.46,1.76 0.54,0.63 0.99,1.17 1.34,1.61 0.35,0.45 0.66,0.75 0.92,0.91 0.26,0.16 0.72,0.32 1.38,0.47l0 0.47c-0.81,-0.04 -1.63,-0.06 -2.47,-0.06 -0.84,0 -1.65,0.02 -2.42,0.06l0 -0.47c0.38,-0.04 0.63,-0.1 0.74,-0.17 0.07,-0.05 0.1,-0.11 0.1,-0.19 0,-0.07 -0.07,-0.2 -0.22,-0.39l-2.5 -3.27 0.01 0.44 0 1.99c0,0.62 0.02,1 0.06,1.14 0.02,0.08 0.08,0.15 0.17,0.21 0.09,0.05 0.41,0.12 0.94,0.2 0.05,0.01 0.14,0.02 0.25,0.05l0 0.47c-0.8,-0.04 -1.53,-0.06 -2.18,-0.06 -0.54,0 -1.41,0.02 -2.61,0.06l0 -0.47c0.72,-0.12 1.14,-0.23 1.25,-0.32 0.08,-0.06 0.13,-0.17 0.14,-0.32 0.02,-0.22 0.03,-1.42 0.03,-3.62 0,-1.85 -0.01,-2.88 -0.03,-3.07 -0.02,-0.19 -0.06,-0.32 -0.14,-0.38 -0.11,-0.09 -0.53,-0.2 -1.26,-0.33z"/>
   </g>
   <g>
    <path id="_6_5" class="fil4 str2" d="M65.07 28.94l0 -0.47c0.51,-0.09 0.81,-0.17 0.89,-0.23 0.08,-0.06 0.12,-0.14 0.12,-0.24 0,-0.06 -0.01,-0.13 -0.04,-0.2 -0.07,-0.18 -0.29,-0.71 -0.66,-1.59 -0.59,-0.01 -1.08,-0.01 -1.48,-0.01 -0.32,0 -0.86,0 -1.61,0.01 -0.47,1.1 -0.71,1.71 -0.71,1.82 0,0.1 0.03,0.17 0.1,0.22 0.07,0.05 0.36,0.12 0.9,0.22l0 0.47c-0.53,-0.04 -1.04,-0.06 -1.52,-0.06 -0.52,0 -1.05,0.02 -1.59,0.06l0 -0.47c0.38,-0.08 0.64,-0.17 0.78,-0.27 0.1,-0.07 0.19,-0.17 0.27,-0.3 0.16,-0.27 0.66,-1.29 1.47,-3.09 0.52,-1.13 1.26,-2.81 2.22,-5.03l0.5 0c0.39,0.99 1.2,2.84 2.43,5.55 0.68,1.51 1.09,2.36 1.23,2.57 0.09,0.14 0.18,0.25 0.27,0.3 0.09,0.06 0.38,0.15 0.86,0.28l0 0.47c-0.74,-0.04 -1.44,-0.06 -2.07,-0.06 -0.63,0 -1.42,0.02 -2.36,0.06zm-1.2 -6.42l-1.27 2.97 1.23 0c0.3,0 0.72,0 1.27,0l-1.23 -2.97z"/>
   </g>
   <g>
    <path id="_7_6" class="fil4 str2" d="M78.56 27.2l0.32 0.61c-0.73,0.48 -1.4,0.82 -2.02,1.02 -0.62,0.2 -1.26,0.3 -1.94,0.3 -1.42,0 -2.54,-0.41 -3.36,-1.22 -0.82,-0.81 -1.22,-1.9 -1.22,-3.28 0,-1.46 0.46,-2.64 1.38,-3.52 0.92,-0.89 2.19,-1.34 3.82,-1.34 0.52,0 1.02,0.04 1.5,0.12 0.48,0.08 1.08,0.24 1.79,0.46 -0.02,0.27 -0.03,0.56 -0.03,0.86 0,0.51 0.03,1.13 0.08,1.87l-0.7 0c-0.21,-0.81 -0.35,-1.29 -0.42,-1.43 -0.16,-0.32 -0.41,-0.58 -0.77,-0.8 -0.36,-0.22 -0.84,-0.33 -1.44,-0.33 -0.92,0 -1.64,0.28 -2.14,0.85 -0.61,0.68 -0.91,1.62 -0.91,2.82 0,1.24 0.3,2.18 0.91,2.83 0.61,0.65 1.42,0.97 2.45,0.97 0.91,0 1.81,-0.26 2.7,-0.79z"/>
   </g>
   <g>
    <path id="_8_7" class="fil4 str2" d="M80.21 20.44l0 -0.47c0.81,0.04 1.62,0.06 2.41,0.06 0.81,0 1.6,-0.02 2.38,-0.06l0 0.47 -1.05 0.21c-0.13,0.05 -0.22,0.11 -0.28,0.2 -0.05,0.08 -0.08,0.27 -0.08,0.57l-0.01 2.87c1.27,-1.24 2.18,-2.2 2.73,-2.87 0.26,-0.32 0.39,-0.53 0.39,-0.63 0,-0.07 -0.04,-0.13 -0.13,-0.16 -0.04,-0.02 -0.31,-0.08 -0.8,-0.18l0 -0.47c0.8,0.04 1.45,0.06 1.95,0.06 0.5,0 1.11,-0.02 1.83,-0.06l0 0.47c-0.61,0.09 -1.01,0.18 -1.21,0.28 -0.2,0.1 -0.5,0.36 -0.92,0.77l-2.17 2.23c0.33,0.42 0.82,1.01 1.46,1.76 0.54,0.63 0.99,1.17 1.34,1.61 0.35,0.45 0.66,0.75 0.92,0.91 0.26,0.16 0.72,0.32 1.38,0.47l0 0.47c-0.81,-0.04 -1.63,-0.06 -2.47,-0.06 -0.84,0 -1.65,0.02 -2.42,0.06l0 -0.47c0.38,-0.04 0.63,-0.1 0.74,-0.17 0.07,-0.05 0.1,-0.11 0.1,-0.19 0,-0.07 -0.07,-0.2 -0.22,-0.39l-2.5 -3.27 0.01 0.44 0 1.99c0,0.62 0.02,1 0.06,1.14 0.02,0.08 0.08,0.15 0.17,0.21 0.09,0.05 0.41,0.12 0.94,0.2 0.05,0.01 0.14,0.02 0.25,0.05l0 0.47c-0.8,-0.04 -1.53,-0.06 -2.18,-0.06 -0.54,0 -1.41,0.02 -2.61,0.06l0 -0.47c0.72,-0.12 1.14,-0.23 1.25,-0.32 0.08,-0.06 0.13,-0.17 0.14,-0.32 0.02,-0.22 0.03,-1.42 0.03,-3.62 0,-1.85 -0.01,-2.88 -0.03,-3.07 -0.02,-0.19 -0.06,-0.32 -0.14,-0.38 -0.11,-0.09 -0.53,-0.2 -1.26,-0.33z"/>
   </g>
   <path id="_9_8" class="fil5" d="M1.13 19.14l0 -0.54c1.18,0.05 2.18,0.07 2.99,0.07 0.32,0 0.83,-0.01 1.56,-0.02 0.34,-0.01 0.65,-0.01 0.94,-0.01 1.03,0 1.78,0.15 2.23,0.46 0.6,0.4 0.91,0.98 0.91,1.75 0,0.67 -0.23,1.23 -0.68,1.68 -0.34,0.34 -0.86,0.62 -1.56,0.84 0.62,0.05 1.12,0.16 1.5,0.33 0.38,0.17 0.67,0.44 0.89,0.79 0.21,0.35 0.32,0.76 0.32,1.23 0,0.58 -0.16,1.12 -0.49,1.62 -0.33,0.5 -0.82,0.89 -1.48,1.16 -0.66,0.27 -1.5,0.41 -2.54,0.41 -0.28,0 -0.63,-0.01 -1.05,-0.02 -0.55,-0.02 -0.92,-0.04 -1.12,-0.04 -0.37,0 -1.17,0.03 -2.42,0.09l0 -0.54 1.22 -0.26c0.11,-0.03 0.19,-0.08 0.24,-0.13 0.05,-0.05 0.09,-0.13 0.12,-0.22 0.04,-0.15 0.06,-0.58 0.07,-1.28 0.01,-1.22 0.02,-2.37 0.02,-3.42 0,-0.59 -0.02,-1.51 -0.06,-2.77 -0.01,-0.38 -0.05,-0.62 -0.13,-0.75 -0.04,-0.07 -0.12,-0.12 -0.22,-0.17 -0.04,-0.02 -0.46,-0.11 -1.26,-0.27zm3.82 3.99l0.37 0c0.8,0 1.38,-0.17 1.74,-0.5 0.36,-0.34 0.54,-0.83 0.54,-1.48 0,-0.56 -0.15,-1 -0.45,-1.29 -0.3,-0.3 -0.74,-0.44 -1.31,-0.44 -0.24,0 -0.53,0.02 -0.88,0.07l0 3.64zm0 0.76l0 4.11c0.33,0.06 0.62,0.09 0.9,0.09 0.66,0 1.17,-0.18 1.51,-0.53 0.34,-0.36 0.51,-0.91 0.51,-1.65 0,-0.76 -0.19,-1.29 -0.58,-1.58 -0.38,-0.29 -1.04,-0.43 -1.96,-0.43l-0.37 0z"/>
   <path id="_10_9" class="fil5" d="M53.41 19.14l0 -0.54c1.18,0.05 2.13,0.07 2.83,0.07 0.73,0 1.62,-0.02 2.65,-0.07l0 0.54 -1.06 0.21c-0.18,0.04 -0.29,0.09 -0.35,0.14 -0.04,0.03 -0.08,0.08 -0.1,0.14 -0.05,0.13 -0.08,0.38 -0.09,0.75 -0.01,0.37 -0.01,1.36 -0.01,2.97l0 1.18c0,1.1 -0.02,1.79 -0.07,2.09 -0.08,0.52 -0.26,0.97 -0.54,1.34 -0.28,0.38 -0.65,0.68 -1.13,0.89 -0.48,0.21 -1,0.32 -1.58,0.32 -0.49,0 -1.05,-0.1 -1.7,-0.3 0.12,-0.65 0.2,-1.58 0.22,-2.76l0.73 0c0.07,0.97 0.22,1.6 0.43,1.89 0.15,0.22 0.37,0.34 0.63,0.34 0.33,0 0.55,-0.2 0.64,-0.61 0.07,-0.28 0.1,-1.77 0.1,-4.46 0,-2.08 -0.01,-3.21 -0.03,-3.39 -0.02,-0.18 -0.07,-0.31 -0.16,-0.37 -0.12,-0.09 -0.59,-0.21 -1.42,-0.37z"/>
   <path id="_11_10" class="fil5" d="M11.53 20.44l0 -0.47c1.08,0.04 1.92,0.06 2.52,0.06 0.61,0 1.43,-0.02 2.45,-0.06l0 0.47c-0.87,0.13 -1.34,0.22 -1.41,0.25 -0.13,0.07 -0.19,0.25 -0.19,0.55l-0.03 1.62 0 5.26 2.31 0c0.38,0 0.63,-0.03 0.76,-0.08 0.17,-0.07 0.34,-0.2 0.5,-0.38 0.16,-0.19 0.44,-0.61 0.85,-1.29l0.57 0c-0.28,0.78 -0.56,1.63 -0.83,2.56 -1.79,-0.04 -3.28,-0.06 -4.47,-0.06 -0.97,0 -1.98,0.02 -3.03,0.06l0 -0.47c0.74,-0.15 1.15,-0.25 1.23,-0.3 0.07,-0.05 0.12,-0.16 0.14,-0.31 0.02,-0.15 0.03,-1.16 0.03,-3.03l0 -2.3 0 -0.4c0,-0.68 -0.02,-1.08 -0.07,-1.21 -0.03,-0.1 -0.09,-0.17 -0.17,-0.21 -0.08,-0.04 -0.47,-0.13 -1.16,-0.26z"/>
   <path id="_12_11" class="fil5" d="M26.2 28.94l0 -0.47c0.51,-0.09 0.81,-0.17 0.89,-0.23 0.08,-0.06 0.12,-0.14 0.12,-0.24 0,-0.06 -0.01,-0.13 -0.04,-0.2 -0.07,-0.18 -0.29,-0.71 -0.66,-1.59 -0.59,-0.01 -1.08,-0.01 -1.48,-0.01 -0.32,0 -0.86,0 -1.61,0.01 -0.47,1.1 -0.71,1.71 -0.71,1.82 0,0.1 0.03,0.17 0.1,0.22 0.07,0.05 0.36,0.12 0.9,0.22l0 0.47c-0.53,-0.04 -1.04,-0.06 -1.52,-0.06 -0.52,0 -1.05,0.02 -1.59,0.06l0 -0.47c0.38,-0.08 0.64,-0.17 0.78,-0.27 0.1,-0.07 0.19,-0.17 0.27,-0.3 0.16,-0.27 0.66,-1.29 1.47,-3.09 0.52,-1.13 1.26,-2.81 2.22,-5.03l0.5 0c0.39,0.99 1.2,2.84 2.43,5.55 0.68,1.51 1.09,2.36 1.23,2.57 0.09,0.14 0.18,0.25 0.27,0.3 0.09,0.06 0.38,0.15 0.86,0.28l0 0.47c-0.74,-0.04 -1.44,-0.06 -2.07,-0.06 -0.63,0 -1.42,0.02 -2.36,0.06zm-1.2 -6.42l-1.27 2.97 1.23 0c0.3,0 0.72,0 1.27,0l-1.23 -2.97z"/>
   <path id="_13_12" class="fil5" d="M39.7 27.2l0.32 0.61c-0.73,0.48 -1.4,0.82 -2.02,1.02 -0.62,0.2 -1.26,0.3 -1.94,0.3 -1.42,0 -2.54,-0.41 -3.36,-1.22 -0.82,-0.81 -1.22,-1.9 -1.22,-3.28 0,-1.46 0.46,-2.64 1.38,-3.52 0.92,-0.89 2.19,-1.34 3.82,-1.34 0.52,0 1.02,0.04 1.5,0.12 0.48,0.08 1.08,0.24 1.79,0.46 -0.02,0.27 -0.03,0.56 -0.03,0.86 0,0.51 0.03,1.13 0.08,1.87l-0.7 0c-0.21,-0.81 -0.35,-1.29 -0.42,-1.43 -0.16,-0.32 -0.41,-0.58 -0.77,-0.8 -0.36,-0.22 -0.84,-0.33 -1.44,-0.33 -0.92,0 -1.64,0.28 -2.14,0.85 -0.61,0.68 -0.91,1.62 -0.91,2.82 0,1.24 0.3,2.18 0.91,2.83 0.61,0.65 1.42,0.97 2.45,0.97 0.91,0 1.81,-0.26 2.7,-0.79z"/>
   <path id="_14_13" class="fil5" d="M41.34 20.44l0 -0.47c0.81,0.04 1.62,0.06 2.41,0.06 0.81,0 1.6,-0.02 2.38,-0.06l0 0.47 -1.05 0.21c-0.13,0.05 -0.22,0.11 -0.28,0.2 -0.05,0.08 -0.08,0.27 -0.08,0.57l-0.01 2.87c1.27,-1.24 2.18,-2.2 2.73,-2.87 0.26,-0.32 0.39,-0.53 0.39,-0.63 0,-0.07 -0.04,-0.13 -0.13,-0.16 -0.04,-0.02 -0.31,-0.08 -0.8,-0.18l0 -0.47c0.8,0.04 1.45,0.06 1.95,0.06 0.5,0 1.11,-0.02 1.83,-0.06l0 0.47c-0.61,0.09 -1.01,0.18 -1.21,0.28 -0.2,0.1 -0.5,0.36 -0.92,0.77l-2.17 2.23c0.33,0.42 0.82,1.01 1.46,1.76 0.54,0.63 0.99,1.17 1.34,1.61 0.35,0.45 0.66,0.75 0.92,0.91 0.26,0.16 0.72,0.32 1.38,0.47l0 0.47c-0.81,-0.04 -1.63,-0.06 -2.47,-0.06 -0.84,0 -1.65,0.02 -2.42,0.06l0 -0.47c0.38,-0.04 0.63,-0.1 0.74,-0.17 0.07,-0.05 0.1,-0.11 0.1,-0.19 0,-0.07 -0.07,-0.2 -0.22,-0.39l-2.5 -3.27 0.01 0.44 0 1.99c0,0.62 0.02,1 0.06,1.14 0.02,0.08 0.08,0.15 0.17,0.21 0.09,0.05 0.41,0.12 0.94,0.2 0.05,0.01 0.14,0.02 0.25,0.05l0 0.47c-0.8,-0.04 -1.53,-0.06 -2.18,-0.06 -0.54,0 -1.41,0.02 -2.61,0.06l0 -0.47c0.72,-0.12 1.14,-0.23 1.25,-0.32 0.08,-0.06 0.13,-0.17 0.14,-0.32 0.02,-0.22 0.03,-1.42 0.03,-3.62 0,-1.85 -0.01,-2.88 -0.03,-3.07 -0.02,-0.19 -0.06,-0.32 -0.14,-0.38 -0.11,-0.09 -0.53,-0.2 -1.26,-0.33z"/>
   <path id="_15_14" class="fil5" d="M65.07 28.94l0 -0.47c0.51,-0.09 0.81,-0.17 0.89,-0.23 0.08,-0.06 0.12,-0.14 0.12,-0.24 0,-0.06 -0.01,-0.13 -0.04,-0.2 -0.07,-0.18 -0.29,-0.71 -0.66,-1.59 -0.59,-0.01 -1.08,-0.01 -1.48,-0.01 -0.32,0 -0.86,0 -1.61,0.01 -0.47,1.1 -0.71,1.71 -0.71,1.82 0,0.1 0.03,0.17 0.1,0.22 0.07,0.05 0.36,0.12 0.9,0.22l0 0.47c-0.53,-0.04 -1.04,-0.06 -1.52,-0.06 -0.52,0 -1.05,0.02 -1.59,0.06l0 -0.47c0.38,-0.08 0.64,-0.17 0.78,-0.27 0.1,-0.07 0.19,-0.17 0.27,-0.3 0.16,-0.27 0.66,-1.29 1.47,-3.09 0.52,-1.13 1.26,-2.81 2.22,-5.03l0.5 0c0.39,0.99 1.2,2.84 2.43,5.55 0.68,1.51 1.09,2.36 1.23,2.57 0.09,0.14 0.18,0.25 0.27,0.3 0.09,0.06 0.38,0.15 0.86,0.28l0 0.47c-0.74,-0.04 -1.44,-0.06 -2.07,-0.06 -0.63,0 -1.42,0.02 -2.36,0.06zm-1.2 -6.42l-1.27 2.97 1.23 0c0.3,0 0.72,0 1.27,0l-1.23 -2.97z"/>
   <path id="_16_15" class="fil5" d="M78.56 27.2l0.32 0.61c-0.73,0.48 -1.4,0.82 -2.02,1.02 -0.62,0.2 -1.26,0.3 -1.94,0.3 -1.42,0 -2.54,-0.41 -3.36,-1.22 -0.82,-0.81 -1.22,-1.9 -1.22,-3.28 0,-1.46 0.46,-2.64 1.38,-3.52 0.92,-0.89 2.19,-1.34 3.82,-1.34 0.52,0 1.02,0.04 1.5,0.12 0.48,0.08 1.08,0.24 1.79,0.46 -0.02,0.27 -0.03,0.56 -0.03,0.86 0,0.51 0.03,1.13 0.08,1.87l-0.7 0c-0.21,-0.81 -0.35,-1.29 -0.42,-1.43 -0.16,-0.32 -0.41,-0.58 -0.77,-0.8 -0.36,-0.22 -0.84,-0.33 -1.44,-0.33 -0.92,0 -1.64,0.28 -2.14,0.85 -0.61,0.68 -0.91,1.62 -0.91,2.82 0,1.24 0.3,2.18 0.91,2.83 0.61,0.65 1.42,0.97 2.45,0.97 0.91,0 1.81,-0.26 2.7,-0.79z"/>
   <path id="_17_16" class="fil5" d="M80.21 20.44l0 -0.47c0.81,0.04 1.62,0.06 2.41,0.06 0.81,0 1.6,-0.02 2.38,-0.06l0 0.47 -1.05 0.21c-0.13,0.05 -0.22,0.11 -0.28,0.2 -0.05,0.08 -0.08,0.27 -0.08,0.57l-0.01 2.87c1.27,-1.24 2.18,-2.2 2.73,-2.87 0.26,-0.32 0.39,-0.53 0.39,-0.63 0,-0.07 -0.04,-0.13 -0.13,-0.16 -0.04,-0.02 -0.31,-0.08 -0.8,-0.18l0 -0.47c0.8,0.04 1.45,0.06 1.95,0.06 0.5,0 1.11,-0.02 1.83,-0.06l0 0.47c-0.61,0.09 -1.01,0.18 -1.21,0.28 -0.2,0.1 -0.5,0.36 -0.92,0.77l-2.17 2.23c0.33,0.42 0.82,1.01 1.46,1.76 0.54,0.63 0.99,1.17 1.34,1.61 0.35,0.45 0.66,0.75 0.92,0.91 0.26,0.16 0.72,0.32 1.38,0.47l0 0.47c-0.81,-0.04 -1.63,-0.06 -2.47,-0.06 -0.84,0 -1.65,0.02 -2.42,0.06l0 -0.47c0.38,-0.04 0.63,-0.1 0.74,-0.17 0.07,-0.05 0.1,-0.11 0.1,-0.19 0,-0.07 -0.07,-0.2 -0.22,-0.39l-2.5 -3.27 0.01 0.44 0 1.99c0,0.62 0.02,1 0.06,1.14 0.02,0.08 0.08,0.15 0.17,0.21 0.09,0.05 0.41,0.12 0.94,0.2 0.05,0.01 0.14,0.02 0.25,0.05l0 0.47c-0.8,-0.04 -1.53,-0.06 -2.18,-0.06 -0.54,0 -1.41,0.02 -2.61,0.06l0 -0.47c0.72,-0.12 1.14,-0.23 1.25,-0.32 0.08,-0.06 0.13,-0.17 0.14,-0.32 0.02,-0.22 0.03,-1.42 0.03,-3.62 0,-1.85 -0.01,-2.88 -0.03,-3.07 -0.02,-0.19 -0.06,-0.32 -0.14,-0.38 -0.11,-0.09 -0.53,-0.2 -1.26,-0.33z"/>
   <g>
    <path class="fil6" d="M50.83 22.07l-1.4 1.59 -0.36 -0.32 1.4 -1.59 0.36 0 0 0.32zm-0.36 -0.32c0.09,-0.1 0.24,-0.11 0.34,-0.02 0.1,0.09 0.11,0.24 0.02,0.34l-0.36 -0.32zm1.4 1.9l-1.4 -1.59 0.36 -0.32 1.4 1.59 0 0.32 -0.36 0zm0.36 -0.32c0.09,0.1 0.08,0.25 -0.02,0.34 -0.1,0.09 -0.25,0.08 -0.34,-0.02l0.36 -0.32zm-1.76 1.59l1.4 -1.59 0.36 0.32 -1.4 1.59 -0.36 0 0 -0.32zm0.36 0.32c-0.09,0.1 -0.24,0.11 -0.34,0.02 -0.1,-0.09 -0.11,-0.24 -0.02,-0.34l0.36 0.32zm-1.4 -1.9l1.4 1.59 -0.36 0.32 -1.4 -1.59 0 -0.32 0.36 0zm-0.36 0.32c-0.09,-0.1 -0.08,-0.25 0.02,-0.34 0.1,-0.09 0.25,-0.08 0.34,0.02l-0.36 0.32z"/>
    <polygon id="_1_17" class="fil7" points="49.25,23.49 50.65,21.91 52.05,23.49 50.65,25.08 "/>
   </g>
   <path class="fil8" d="M20.1 22.25c0.17,-0.34 0.34,-0.51 0.69,-0.51 0.38,0 0.69,0.31 0.69,0.69 0,0.69 -0.69,1.37 -1.37,2.06 -0.69,-0.69 -1.37,-1.37 -1.37,-2.06 0,-0.38 0.31,-0.69 0.69,-0.69 0.34,0 0.51,0.17 0.69,0.51z"/>
  </g>
 </g>
</svg>
