<?xml version="1.0" encoding="UTF-8"?>
<!DOCTYPE svg PUBLIC "-//W3C//DTD SVG 1.1//EN" "http://www.w3.org/Graphics/SVG/1.1/DTD/svg11.dtd">
<!-- Creator: CorelDRAW 2021 (64-Bit) -->
<svg xmlns="http://www.w3.org/2000/svg" xml:space="preserve" width="0.272224in" height="0.272213in" version="1.1" style="shape-rendering:geometricPrecision; text-rendering:geometricPrecision; image-rendering:optimizeQuality; fill-rule:evenodd; clip-rule:evenodd"
viewBox="0 0 25.36 25.36"
 xmlns:xlink="http://www.w3.org/1999/xlink"
 xmlns:xodm="http://www.corel.com/coreldraw/odm/2003">
 <defs>
  <style type="text/css">
   <![CDATA[
    .fil0 {fill:#FEFEFE}
   ]]>
  </style>
 </defs>
 <g id="Capa_x0020_1">
  <metadata id="CorelCorpID_0Corel-Layer"/>
  <path class="fil0" d="M3.02 4.49c0.1,0.1 1.24,0.73 1.47,0.86 0.17,0.1 0.33,0.18 0.45,0.33 0.12,0.15 0.2,0.34 0.19,0.59 -0,0.24 -0.1,0.4 -0.21,0.58 -0.19,0.32 -0.37,0.65 -0.58,0.99 -0.19,0.32 -0.38,0.66 -0.57,0.98 -0.2,0.35 -0.44,0.66 -0.95,0.62 -0.29,-0.02 -0.77,-0.34 -1.06,-0.51 -0.14,-0.08 -0.9,-0.54 -1,-0.57 -0.12,0.17 -0.37,1.14 -0.44,1.44 -0.04,0.17 -0.07,0.36 -0.11,0.53 -0.16,0.63 -0.22,1.76 -0.22,2.43 0,0.79 0.09,1.55 0.22,2.26 0.06,0.32 0.41,1.78 0.55,1.95l1.47 -0.84c0.38,-0.23 0.74,-0.36 1.16,-0.08 0.18,0.12 0.23,0.23 0.35,0.43 0.2,0.32 0.38,0.66 0.57,1 0.19,0.33 0.39,0.65 0.57,0.98 0.1,0.18 0.21,0.32 0.23,0.56 0.03,0.5 -0.23,0.75 -0.6,0.95 -0.15,0.08 -0.32,0.19 -0.5,0.29 -0.1,0.05 -0.98,0.55 -0.99,0.59 -0.03,0.1 0.96,1.05 1.05,1.14 0.6,0.58 1.36,1.11 2.1,1.57 0.94,0.58 1.99,1.01 3.07,1.32 0.23,0.07 0.99,0.27 1.2,0.26l0.01 -1.8c-0,-0.49 0.22,-0.84 0.62,-0.97 0.27,-0.08 1.84,-0.04 2.33,-0.04 0.21,0 0.61,-0.02 0.79,0.02 0.39,0.08 0.72,0.43 0.72,0.88l0 1.9c0.38,0.02 1.89,-0.47 2.29,-0.63 1.02,-0.4 1.98,-0.91 2.84,-1.54 0.75,-0.55 1.31,-1.04 1.93,-1.71 0.07,-0.07 0.31,-0.33 0.34,-0.4 -0.04,-0.02 -0.06,-0.05 -0.11,-0.07 -0.05,-0.03 -0.08,-0.05 -0.13,-0.07l-1.2 -0.71c-0.33,-0.2 -0.64,-0.39 -0.62,-0.93 0.01,-0.24 0.12,-0.4 0.22,-0.57l1.13 -1.97c0.2,-0.34 0.41,-0.64 0.93,-0.62 0.31,0.01 0.75,0.32 1.06,0.49 0.15,0.08 0.9,0.54 0.98,0.56 0.09,-0.16 0.24,-0.71 0.3,-0.92 0.09,-0.34 0.15,-0.65 0.23,-1.01 0.38,-1.72 0.26,-3.99 -0.22,-5.65 -0.09,-0.32 -0.18,-0.65 -0.29,-0.94 -0.1,0.01 -1.3,0.7 -1.5,0.8 -0.19,0.1 -0.33,0.21 -0.6,0.21 -0.65,0 -0.87,-0.58 -1.18,-1.13 -0.29,-0.5 -0.57,-0.98 -0.84,-1.46 -0.14,-0.24 -0.31,-0.52 -0.18,-0.91 0.1,-0.3 0.3,-0.44 0.56,-0.59l1.46 -0.85c-0.15,-0.27 -1.21,-1.27 -1.45,-1.47 -1.02,-0.89 -2.36,-1.7 -3.67,-2.2 -0.42,-0.16 -1.92,-0.65 -2.3,-0.64l-0 1.9c0,0.24 -0.13,0.53 -0.28,0.65 -0.21,0.17 -0.34,0.25 -0.71,0.25l-2.55 -0c-0.6,0 -0.92,-0.42 -0.93,-0.99l0 -1.81c-0.47,-0 -1.85,0.45 -2.31,0.62 -0.7,0.27 -1.39,0.6 -1.98,0.96 -1.32,0.81 -2.2,1.57 -3.17,2.69zm14.42 -2.7c-0.45,0.12 -0.56,0.48 -0.85,0.93 -0.11,0.17 -0.23,0.37 -0.34,0.55 -0.12,0.19 -0.24,0.4 -0.16,0.7 0.06,0.25 0.19,0.39 0.38,0.51 0.17,0.11 0.38,0.24 0.55,0.34 0.42,0.26 0.84,0.61 1.27,0.5 0.43,-0.11 0.57,-0.51 0.84,-0.93 0.12,-0.18 0.23,-0.36 0.34,-0.55 0.11,-0.18 0.24,-0.4 0.16,-0.71 -0.06,-0.24 -0.2,-0.4 -0.38,-0.51l-1.1 -0.69c-0.19,-0.12 -0.41,-0.23 -0.71,-0.15zm-10.3 18.25c-0.3,0.07 -0.41,0.15 -0.55,0.35 -0.12,0.17 -0.23,0.37 -0.34,0.55 -0.12,0.18 -0.21,0.35 -0.34,0.55 -0.12,0.19 -0.24,0.38 -0.19,0.7 0.04,0.24 0.19,0.42 0.36,0.54l1.1 0.69c0.19,0.12 0.38,0.24 0.71,0.18 0.45,-0.08 0.62,-0.52 0.87,-0.92 0.11,-0.18 0.23,-0.37 0.34,-0.55 0.12,-0.19 0.24,-0.39 0.18,-0.69 -0.09,-0.45 -0.52,-0.62 -0.91,-0.87 -0.18,-0.12 -0.36,-0.22 -0.55,-0.34 -0.18,-0.11 -0.4,-0.24 -0.67,-0.18zm15.23 -8.96c-0.41,0.07 -0.68,0.38 -0.69,0.84 -0.01,0.28 -0.06,1.34 -0.04,1.51 0.06,0.41 0.39,0.67 0.85,0.68 0.32,0 1.29,0.06 1.51,0.04 0.41,-0.05 0.67,-0.42 0.67,-0.86 0,-0.31 0.07,-1.31 0.03,-1.51 -0.04,-0.23 -0.16,-0.39 -0.28,-0.48 -0.31,-0.25 -0.8,-0.18 -1.32,-0.21 -0.18,-0.01 -0.59,-0.03 -0.74,-0.01zm-4.26 8.92c-0.19,0.04 -0.96,0.48 -1.18,0.59 -0.19,0.1 -0.39,0.19 -0.53,0.35 -0.39,0.48 -0.09,0.89 0.12,1.28 0.13,0.25 0.48,0.97 0.67,1.12 0.6,0.47 1.12,-0.08 1.86,-0.43 0.4,-0.19 0.81,-0.44 0.71,-1.02 -0.04,-0.19 -0.47,-0.95 -0.59,-1.18 -0.11,-0.21 -0.2,-0.41 -0.35,-0.54 -0.17,-0.14 -0.41,-0.23 -0.71,-0.17zm-10.57 -18.13c-0.34,0.08 -0.88,0.42 -1.19,0.58 -0.37,0.19 -0.84,0.4 -0.75,0.99 0.03,0.22 0.17,0.42 0.27,0.61 0.13,0.25 0.49,0.98 0.65,1.14 0.16,0.15 0.38,0.24 0.69,0.2 0.17,-0.02 0.46,-0.2 0.6,-0.27 0.25,-0.13 0.97,-0.48 1.12,-0.65 0.41,-0.46 0.13,-0.89 -0.08,-1.27 -0.13,-0.24 -0.49,-0.99 -0.66,-1.13 -0.14,-0.12 -0.39,-0.25 -0.66,-0.19zm-6.22 9.37c-0.42,0.08 -0.64,0.41 -0.64,0.89 -0,0.3 -0.07,1.31 -0.03,1.5 0.04,0.21 0.16,0.36 0.3,0.47 0.19,0.15 0.32,0.15 0.6,0.17 0.23,0.01 1.32,0.07 1.49,0.03 0.44,-0.1 0.63,-0.45 0.64,-0.88 0.01,-0.32 0.07,-1.29 0.03,-1.5 -0.08,-0.45 -0.45,-0.64 -0.88,-0.65 -0.3,-0.01 -1.31,-0.07 -1.51,-0.03zm10.9 -6.88c-0.31,0.04 -0.54,0.04 -0.94,0.1 -0.78,0.12 -1.67,0.43 -2.35,0.77 -2.83,1.43 -4.73,4.37 -4.58,7.93 0.05,1.15 0.42,2.39 0.88,3.28 0.94,1.83 2.44,3.23 4.34,3.99 3.26,1.31 6.87,0.44 9.24,-2.09 1.42,-1.51 2.39,-3.9 2.2,-6.13 -0.03,-0.34 -0.04,-0.63 -0.1,-0.94 -0.17,-0.87 -0.37,-1.55 -0.77,-2.34 -0.5,-0.98 -1.15,-1.8 -1.8,-2.38 -0.35,-0.31 -0.76,-0.66 -1.18,-0.91 -0.53,-0.32 -0.78,-0.47 -1.37,-0.71 -0.49,-0.2 -1.05,-0.37 -1.61,-0.47 -0.51,-0.09 -1.4,-0.19 -1.96,-0.12zm-0.01 0.46c-1.24,0.08 -2.14,0.38 -3.1,0.84 -0.82,0.39 -1.75,1.15 -2.24,1.71 -0.15,0.18 -0.3,0.34 -0.45,0.54 -1.13,1.54 -1.73,3.25 -1.61,5.27 0.25,4.18 3.87,7.67 8.35,7.39 1.22,-0.08 2.15,-0.39 3.1,-0.84 0.72,-0.35 1.71,-1.1 2.24,-1.71 0.15,-0.18 0.3,-0.34 0.45,-0.54 0.44,-0.6 0.78,-1.15 1.07,-1.89 0.82,-2.11 0.73,-4.47 -0.31,-6.48 -0.38,-0.74 -1.06,-1.68 -1.71,-2.23 -0.44,-0.38 -0.61,-0.53 -1.12,-0.85 -1.33,-0.85 -3.02,-1.31 -4.68,-1.2zm0.14 0.36c-2.33,0.13 -4.09,1.21 -5.15,2.37 -0.04,0.04 -0.07,0.07 -0.11,0.11 -0.04,0.05 -0.06,0.07 -0.11,0.13 -0.06,0.07 -0.15,0.18 -0.21,0.26 -0.44,0.57 -0.75,1.08 -1.04,1.79 -0.39,0.93 -0.59,2.04 -0.55,3.18 0.14,4.03 3.62,7.38 7.86,7.18 4.03,-0.19 7.35,-3.59 7.16,-7.86 -0.09,-2.08 -1,-3.82 -2.37,-5.14 -1.17,-1.11 -3.14,-2.15 -5.47,-2.03zm-0.05 0.46c-0.68,0.07 -0.83,0.06 -1.52,0.24 -1.28,0.35 -2.43,1.09 -3.29,2.02 -0.56,0.6 -1.02,1.31 -1.37,2.15 -0.33,0.82 -0.58,1.96 -0.5,3.02 0.15,1.97 0.91,3.52 2.26,4.8 0.6,0.57 1.32,1.02 2.14,1.36 1.4,0.58 3,0.67 4.52,0.26 1.3,-0.35 2.43,-1.09 3.3,-2.01 0.55,-0.59 1.02,-1.3 1.37,-2.15 0.77,-1.87 0.65,-4.01 -0.23,-5.8 -0.76,-1.54 -2.09,-2.75 -3.68,-3.4 -0.77,-0.31 -2.02,-0.6 -3.01,-0.49zm-3.63 9.38c0.31,-0 0.26,-0.05 0.5,-0.47 0.12,-0.21 0.22,-0.43 0.35,-0.64 0.08,0.08 0.28,0.5 0.35,0.64 0.06,0.11 0.11,0.21 0.17,0.32 0.08,0.15 0.15,0.15 0.37,0.15l0.78 0c0.18,0 0.33,0.02 0.4,-0.13 0.07,-0.14 -0.05,-0.29 -0.11,-0.39 -0.33,-0.55 -0.65,-1.16 -0.97,-1.69 -0.11,-0.19 -0.05,-0.18 0.05,-0.36l0.96 -1.7c0.07,-0.16 -0.03,-0.31 -0.16,-0.33 -0.25,-0.04 -0.8,-0 -1.08,-0 -0.17,0 -0.23,0.02 -0.3,0.14 -0.05,0.09 -0.09,0.18 -0.15,0.29 -0.09,0.19 -0.21,0.43 -0.31,0.59 -0.21,-0.24 -0.41,-1.02 -0.67,-1.02l-1.08 0c-0.51,0 -0.19,0.46 -0.12,0.58 0.13,0.24 0.25,0.45 0.38,0.68 0.13,0.23 0.24,0.44 0.38,0.66 0.23,0.41 0.23,0.27 -0,0.68l-0.77 1.33c-0.06,0.1 -0.15,0.25 -0.19,0.34 -0.07,0.16 0.03,0.31 0.16,0.33 0.23,0.04 0.8,0.01 1.06,0zm6.4 -0.4c0.02,-0.08 0.07,-0.12 0.13,-0.17 0.05,-0.06 0.1,-0.1 0.15,-0.16 0.94,-1.05 2,-2.07 1.93,-3.57 -0.02,-0.34 -0.13,-0.69 -0.26,-0.95 -0.26,-0.51 -0.75,-0.89 -1.33,-1.11 -0.41,-0.15 -1.16,-0.23 -1.6,-0.14 -0.16,0.03 -0.37,0.05 -0.51,0.11 -0.63,0.23 -1.01,0.46 -1.47,0.98 -0.08,0.09 -0.24,0.23 -0.17,0.41 0.03,0.06 0.24,0.27 0.29,0.33 0.2,0.22 0.39,0.42 0.6,0.62 0.15,0.15 0.27,0.13 0.4,-0.01 0.31,-0.36 0.55,-0.62 1.14,-0.7 0.89,-0.11 1.18,0.56 0.79,1.3 -0.3,0.59 -1.23,1.48 -1.71,1.96 -0.21,0.21 -0.41,0.4 -0.61,0.61 -0.21,0.21 -0.39,0.38 -0.62,0.6 -0.17,0.17 -0.13,0.18 -0.13,0.47 0,0.21 -0,0.41 -0,0.62 0,0.61 -0.02,0.55 0.67,0.55l4.27 0c0.25,-0 0.29,-0.1 0.29,-0.34 -0,-0.2 0.05,-1.23 -0.04,-1.33 -0.09,-0.11 -0.24,-0.09 -0.36,-0.09 -0.56,0 -1.33,0.02 -1.85,-0zm-14.13 2.81c0.11,0.48 0.94,1.89 1.25,2.35l0.51 0.71c0.08,-0.02 0.36,-0.19 0.44,-0.24 0.14,-0.09 0.29,-0.17 0.43,-0.25 0.29,-0.17 0.58,-0.33 0.87,-0.5 0.4,-0.25 0.2,-0.58 0.01,-0.89 -0.17,-0.3 -0.33,-0.57 -0.5,-0.87 -0.17,-0.29 -0.33,-0.56 -0.49,-0.86 -0.07,-0.12 -0.18,-0.34 -0.26,-0.41 -0.13,-0.11 -0.35,-0.15 -0.52,-0.05 -0.29,0.16 -0.58,0.33 -0.87,0.5l-0.87 0.5zm0.01 -9.48c0.12,0.04 0.31,0.17 0.44,0.24l1.28 0.74c0.44,0.24 0.62,-0.16 0.78,-0.43 0.15,-0.26 1.2,-2.02 1.22,-2.17 0.04,-0.23 -0.08,-0.39 -0.21,-0.46l-1.73 -0.99c-0.07,0.05 -0.2,0.25 -0.27,0.34 -0.09,0.12 -0.17,0.23 -0.25,0.35 -0.16,0.24 -0.31,0.48 -0.47,0.74 -0.14,0.23 -0.77,1.39 -0.79,1.65zm9.99 17.29c0.43,0.1 1.3,0.13 1.77,0.13 0.5,0 1.3,-0.03 1.78,-0.13 0.01,-0.21 0.02,-1.96 -0.01,-2.07 -0.03,-0.14 -0.12,-0.24 -0.22,-0.29 -0.14,-0.08 -0.31,-0.06 -0.48,-0.06l-2.1 0c-0.25,0 -0.63,-0.05 -0.73,0.33 -0.03,0.13 -0.02,1.82 -0.01,2.1zm0 -25.1c-0,0.29 -0.02,1.93 0.01,2.08 0.03,0.13 0.13,0.24 0.22,0.29 0.13,0.07 0.31,0.06 0.48,0.06l2.1 0c0.38,0 0.65,-0 0.73,-0.33 0.03,-0.13 0.03,-1.89 0.01,-2.1 -0.52,-0.09 -1.22,-0.13 -1.76,-0.13 -0.37,0 -1.48,0.03 -1.78,0.13zm13.51 7.87c-0.1,-0.47 -0.96,-1.96 -1.27,-2.41 -0.1,-0.14 -0.43,-0.63 -0.52,-0.7 -0.33,0.16 -0.9,0.51 -1.26,0.72 -0.32,0.19 -0.69,0.31 -0.64,0.7 0.02,0.13 0.17,0.35 0.23,0.45l0.98 1.7c0.41,0.72 0.52,0.63 1.18,0.25l1.3 -0.72zm-1.79 12.49c0.06,-0.11 0.17,-0.23 0.25,-0.34 0.47,-0.66 0.77,-1.15 1.14,-1.89 0.1,-0.19 0.33,-0.67 0.38,-0.86 -0.14,-0.05 -1.43,-0.84 -1.7,-0.97 -0.17,-0.09 -0.36,-0.07 -0.49,0.05 -0.14,0.12 -1.08,1.82 -1.25,2.11 -0.14,0.25 -0.45,0.64 -0.02,0.92l1.7 0.99zm-21.27 -8.8c-0.32,0.09 -0.26,0.45 -0.27,0.81 -0.01,0.2 -0.06,0.89 -0.02,1.03 0.08,0.33 0.48,0.26 0.8,0.28 1.36,0.06 1.3,0.15 1.33,-0.8 0.05,-1.28 0.18,-1.27 -0.77,-1.31 -0.19,-0.01 -0.95,-0.05 -1.07,-0.02zm20.98 -0.14c-0.3,0.12 -0.23,0.42 -0.24,0.84 -0.04,1.28 -0.16,1.24 0.81,1.27 1.31,0.04 1.27,0.18 1.3,-0.81 0.01,-0.19 0.05,-0.92 0.01,-1.04 -0.1,-0.3 -0.49,-0.24 -0.82,-0.25 -0.2,-0.01 -0.92,-0.06 -1.05,-0zm-4.19 8.9c-0.14,0.05 -0.29,0.15 -0.43,0.22l-0.86 0.46c-0.13,0.07 -0.26,0.2 -0.21,0.41 0.02,0.09 0.58,1.12 0.68,1.29 0.22,0.42 0.54,0.17 0.85,-0l0.86 -0.46c0.15,-0.07 0.28,-0.21 0.22,-0.43 -0.03,-0.09 -0.58,-1.11 -0.68,-1.29 -0.07,-0.14 -0.22,-0.28 -0.43,-0.2zm-10.64 -18.11c-0.15,0.06 -0.29,0.14 -0.43,0.22l-0.86 0.45c-0.39,0.21 -0.13,0.55 0.04,0.88l0.46 0.86c0.23,0.4 0.6,0.08 0.87,-0.05 0.15,-0.08 0.29,-0.15 0.43,-0.23 0.24,-0.13 0.74,-0.29 0.6,-0.65l-0.68 -1.29c-0.08,-0.14 -0.22,-0.26 -0.43,-0.18zm-0.38 18.16c-0.17,0.05 -0.23,0.22 -0.31,0.35l-0.5 0.81c-0.29,0.45 -0.26,0.53 0.17,0.8l0.82 0.51c0.13,0.08 0.28,0.23 0.5,0.16 0.15,-0.05 0.22,-0.21 0.31,-0.35l0.51 -0.81c0.27,-0.42 0.26,-0.53 -0.18,-0.8l-0.82 -0.51c-0.13,-0.09 -0.29,-0.23 -0.49,-0.17zm10.35 -18.26c-0.16,0.06 -0.21,0.21 -0.31,0.36l-0.51 0.81c-0.29,0.45 -0.22,0.53 0.19,0.79l0.82 0.51c0.45,0.3 0.55,0.21 0.8,-0.2l0.51 -0.81c0.29,-0.45 0.24,-0.53 -0.19,-0.8l-0.82 -0.51c-0.14,-0.08 -0.29,-0.23 -0.5,-0.15z"/>
 </g>
</svg>
