<?xml version="1.0" encoding="UTF-8"?>
<!DOCTYPE svg PUBLIC "-//W3C//DTD SVG 1.1//EN" "http://www.w3.org/Graphics/SVG/1.1/DTD/svg11.dtd">
<!-- Creator: CorelDRAW 2021 (64-Bit) -->
<svg xmlns="http://www.w3.org/2000/svg" xml:space="preserve" width="0.186717in" height="0.230819in" version="1.1" style="shape-rendering:geometricPrecision; text-rendering:geometricPrecision; image-rendering:optimizeQuality; fill-rule:evenodd; clip-rule:evenodd"
viewBox="0 0 12.13 15"
 xmlns:xlink="http://www.w3.org/1999/xlink"
 xmlns:xodm="http://www.corel.com/coreldraw/odm/2003">
 <defs>
  <style type="text/css">
   <![CDATA[
    .fil0 {fill:#FEFEFE}
   ]]>
  </style>
 </defs>
 <g id="Capa_x0020_1">
  <metadata id="CorelCorpID_0Corel-Layer"/>
  <path class="fil0" d="M1.01 2.46l0.61 0 0 9.71c0,0.55 0.45,1.01 1.01,1.01l6.98 0 0 0.82c0,0.55 -0.45,1.01 -1.01,1.01l-7.59 0c-0.55,0 -1.01,-0.45 -1.01,-1.01l0 -10.53c0,-0.55 0.45,-1.01 1.01,-1.01zm2.53 -2.46l7.59 0c0.55,0 1.01,0.45 1.01,1.01l0 10.53c0,0.55 -0.45,1.01 -1.01,1.01l-7.59 0c-0.55,0 -1.01,-0.45 -1.01,-1.01l0 -10.53c0,-0.55 0.45,-1.01 1.01,-1.01zm3.82 3.28c0.24,0 0.43,0.19 0.43,0.43l0 2.06 2.06 0c0.24,0 0.43,0.19 0.43,0.43 0,0.24 -0.19,0.43 -0.43,0.43l-2.06 0 0 2.06c0,0.24 -0.19,0.43 -0.43,0.43 -0.24,0 -0.43,-0.19 -0.43,-0.43l0 -2.06 -2.06 0c-0.24,0 -0.43,-0.19 -0.43,-0.43 0,-0.24 0.19,-0.43 0.43,-0.43l2.06 0 0 -2.06c0,-0.24 0.19,-0.43 0.43,-0.43z"/>
 </g>
</svg>
