<?xml version="1.0" encoding="UTF-8"?>
<!DOCTYPE svg PUBLIC "-//W3C//DTD SVG 1.1//EN" "http://www.w3.org/Graphics/SVG/1.1/DTD/svg11.dtd">
<!-- Creator: CorelDRAW 2021 (64-Bit) -->
<svg xmlns="http://www.w3.org/2000/svg" xml:space="preserve" width="0.182583in" height="0.23176in" version="1.1" style="shape-rendering:geometricPrecision; text-rendering:geometricPrecision; image-rendering:optimizeQuality; fill-rule:evenodd; clip-rule:evenodd"
viewBox="0 0 11.74 14.91"
 xmlns:xlink="http://www.w3.org/1999/xlink"
 xmlns:xodm="http://www.corel.com/coreldraw/odm/2003">
 <defs>
  <style type="text/css">
   <![CDATA[
    .fil0 {fill:#FEFEFE}
   ]]>
  </style>
 </defs>
 <g id="Capa_x0020_1">
  <metadata id="CorelCorpID_0Corel-Layer"/>
  <g id="_2890768121824">
   <path class="fil0" d="M5.28 6.59c-0.61,0.07 -0.46,-0.17 -0.46,-1.44 0,-0.68 0.15,-3.27 -0.21,-3.69 -0.38,-0.44 -1.05,-0.36 -1.33,0.08 -0.28,0.44 -0.15,6.64 -0.15,7.69 -0.69,-0.53 -1.06,-2.06 -1.98,-2.17 -0.46,-0.05 -0.8,0.17 -0.97,0.41 -0.51,0.73 0.14,1.46 0.46,1.95 0.38,0.58 0.74,1.12 1.14,1.69 0.93,1.33 1.26,2.15 2.53,3.06 1.9,1.37 6.07,1.05 7.14,-2.51 0.42,-1.41 0.25,-6.08 0.26,-8.11 0.01,-1.74 -1.24,-1.18 -1.42,-1.02 -0.46,0.41 -0.28,2.8 -0.27,3.85 0,0.6 0.14,1.03 -0.53,0.9 -0.66,-1.02 0.6,-6.23 -0.69,-6.64 -2.1,-0.66 -0.52,4.81 -1.23,5.96 -0.7,0.08 -0.48,-0.82 -0.48,-1.44l0 -3.83c0,-0.67 -0.06,-1.19 -0.68,-1.3 -1.38,-0.25 -1.01,1.87 -1.01,2.83 -0,0.82 0.16,3.24 -0.12,3.74z"/>
  </g>
 </g>
</svg>
