<?xml version="1.0" encoding="UTF-8"?>
<!DOCTYPE svg PUBLIC "-//W3C//DTD SVG 1.1//EN" "http://www.w3.org/Graphics/SVG/1.1/DTD/svg11.dtd">
<!-- Creator: CorelDRAW 2021 (64-Bit) -->
<svg xmlns="http://www.w3.org/2000/svg" xml:space="preserve" width="0.359197in" height="0.359252in" version="1.1" style="shape-rendering:geometricPrecision; text-rendering:geometricPrecision; image-rendering:optimizeQuality; fill-rule:evenodd; clip-rule:evenodd"
viewBox="0 0 101.09 101.1"
 xmlns:xlink="http://www.w3.org/1999/xlink"
 xmlns:xodm="http://www.corel.com/coreldraw/odm/2003">
 <defs>
  <style type="text/css">
   <![CDATA[
    .fil0 {fill:#B12221}
    .fil3 {fill:#D75765}
    .fil2 {fill:#DB3535}
    .fil1 {fill:white}
   ]]>
  </style>
 </defs>
 <g id="Capa_x0020_1">
  <metadata id="CorelCorpID_0Corel-Layer"/>
  <path class="fil0" d="M32.2 22.26l36.67 0.01 -0 56.31 0.01 0.28 -36.68 0.01 0.01 -56.6zm-32.02 32.66c2.18,26.53 25.5,48.31 54.73,46.01 26.34,-2.07 48.44,-25.52 45.99,-54.7 -2.22,-26.38 -25.61,-48.64 -54.71,-46.03 -26.4,2.36 -48.43,25.23 -46.01,54.71z"/>
  <path class="fil1" d="M67.32 83.19c-1.9,-1.29 -0.81,-1.93 -2.3,-3.83l1.37 -0.03c0.34,1.05 -0.65,-0.69 0.12,0.63 0.51,0.88 -0.33,0.05 0.63,0.54 1.52,-0.83 0.38,0.16 0.76,-1.17 1.82,0.04 0.55,-0.14 1.12,0.34 -0.98,0.91 -0.75,0.83 -1.01,2.15l-0.93 -0.92c-0.03,-0.1 -0.13,-0.08 -0.19,-0.12 0.5,2.2 1.08,-0.45 0.43,2.42zm2.2 -5.34c-1.25,1.22 -1.12,0.22 -2.42,0.17 -0.9,-0.04 -1.71,1.19 -2.63,-0.23 -0.99,-1.53 1.75,-3.71 2.62,-4.47 2.74,2.75 3.2,2.92 2.43,4.53zm-18.98 -17.58c-1.3,-0.99 -9.98,-10.69 -10.5,-12.03 -1.92,-4.87 3.21,-9.4 7.92,-6.78 1.75,0.97 1.46,1.54 2.59,2.88l1.32 -1.9c1.49,-1.71 4.08,-2.19 6.25,-1.32 2.42,0.97 4.34,4.21 2.84,7.39 -0.56,1.19 -9.35,10.96 -10.41,11.76zm-19.03 -37.38c1.18,-0.58 1.67,0.21 2.47,0.25 0.77,0.04 0.79,-0.41 2.09,-0.38 1.67,2.03 -0.48,3.75 -2.08,5 -2.99,-2.52 -2.96,-3.24 -2.48,-4.87zm0.47 -0.99c0.56,-1.05 1.43,-2.52 1.79,-3.96 0.49,0.36 0.59,-0.11 1.31,1.73 0.23,0.59 0.34,1.06 0.74,1.84 -0.45,0.28 1.05,0.48 -1.15,0.29 -0.46,-1.18 0.65,0.7 -0.13,-0.63 -0.57,-0.96 0.41,-0.03 -0.62,-0.51 -1.54,0.77 0.47,1.07 -1.94,1.25zm-3.7 62.99l44.49 -0.01 -0.01 -0.34 0 -68.29 -44.48 -0.01 -0.01 68.65z"/>
  <path class="fil2" d="M50.54 61.99c1.24,-0.94 11.59,-12.44 12.25,-13.84 1.76,-3.75 -0.5,-7.56 -3.35,-8.7 -2.55,-1.02 -5.6,-0.46 -7.35,1.56l-1.55 2.24c-1.32,-1.57 -0.99,-2.25 -3.04,-3.39 -5.54,-3.08 -11.57,2.25 -9.32,7.98 0.62,1.57 10.83,13 12.36,14.16z"/>
  <path class="fil2" d="M69.53 77.84c0.77,-1.61 0.31,-1.78 -2.43,-4.53 -0.87,0.76 -3.61,2.94 -2.62,4.47 0.92,1.41 1.73,0.19 2.63,0.23 1.3,0.05 1.17,1.06 2.42,-0.17z"/>
  <path class="fil2" d="M31.52 22.88c-0.48,1.64 -0.51,2.36 2.48,4.87 1.6,-1.25 3.74,-2.97 2.08,-5 -1.3,-0.03 -1.32,0.42 -2.09,0.38 -0.8,-0.04 -1.29,-0.83 -2.47,-0.25z"/>
  <path class="fil3" d="M31.99 21.9c2.41,-0.18 0.4,-0.48 1.94,-1.25 1.04,0.48 0.06,-0.45 0.62,0.51 0.79,1.33 -0.32,-0.54 0.13,0.63 2.19,0.2 0.7,-0.01 1.15,-0.29 -0.4,-0.78 -0.51,-1.25 -0.74,-1.84 -0.72,-1.83 -0.82,-1.37 -1.31,-1.73 -0.36,1.44 -1.23,2.91 -1.79,3.96z"/>
  <path class="fil3" d="M67.32 83.19c0.65,-2.88 0.07,-0.22 -0.43,-2.42 0.06,0.04 0.16,0.02 0.19,0.12l0.93 0.92c0.26,-1.33 0.04,-1.24 1.01,-2.15 -0.57,-0.47 0.71,-0.3 -1.12,-0.34 -0.38,1.33 0.76,0.34 -0.76,1.17 -0.96,-0.49 -0.12,0.34 -0.63,-0.54 -0.77,-1.32 0.22,0.42 -0.12,-0.63l-1.37 0.03c1.49,1.9 0.4,2.54 2.3,3.83z"/>
 </g>
</svg>
